<svg xmlns="http://www.w3.org/2000/svg" width="1920" height="1112" viewBox="0 0 1920 1112">
  <g id="Grupo_1533" data-name="Grupo 1533" transform="translate(0 -3548)">
    <rect id="Rectángulo_643" data-name="Rectángulo 643" width="1920" height="1112" transform="translate(0 3548)" fill="#27293f"/>
    <g id="Grupo_1513" data-name="Grupo 1513" transform="translate(-18.868 3555.836)">
      <g id="Grupo_1487" data-name="Grupo 1487" transform="translate(1696.619 142.734)" opacity="0.3">
        <g id="Grupo_1486" data-name="Grupo 1486" transform="translate(0 0)">
          <path id="Trazado_706" data-name="Trazado 706" d="M553.789,81.987l-56.26,24.485a111.577,111.577,0,0,0-9.757,9.1L567.2,81A113.158,113.158,0,0,0,553.789,81.987Z" transform="translate(-457.324 -81.003)" fill="#fff"/>
          <path id="Trazado_707" data-name="Trazado 707" d="M593.295,81.386l-106.844,46.5q-2.309,3.3-4.376,6.757L601.308,82.749C598.671,82.2,595.995,81.752,593.295,81.386Z" transform="translate(-466.618 -80.378)" fill="#fff"/>
          <path id="Trazado_708" data-name="Trazado 708" d="M618.166,83.112,481.485,142.6q-1.334,2.929-2.5,5.942l145.284-63.23Q621.258,84.125,618.166,83.112Z" transform="translate(-471.664 -77.562)" fill="#fff"/>
          <path id="Trazado_709" data-name="Trazado 709" d="M636.545,85.551,478.613,154.286q-.758,2.7-1.382,5.452L641.537,88.23Q639.078,86.829,636.545,85.551Z" transform="translate(-474.521 -73.583)" fill="#fff"/>
          <path id="Trazado_710" data-name="Trazado 710" d="M650.765,88.433,476.973,164.071c-.234,1.692-.434,3.395-.589,5.11L654.967,91.457Q652.9,89.9,650.765,88.433Z" transform="translate(-475.904 -68.882)" fill="#fff"/>
          <path id="Trazado_711" data-name="Trazado 711" d="M661.9,91.645,476.238,172.453c-.005.5-.037,1-.037,1.505,0,1.116.053,2.218.084,3.326L665.469,94.947C664.3,93.821,663.119,92.719,661.9,91.645Z" transform="translate(-476.201 -63.641)" fill="#fff"/>
          <path id="Trazado_712" data-name="Trazado 712" d="M670.747,95.127,476.427,179.7c.158,1.545.366,3.073.589,4.6l196.773-85.64C672.8,97.458,671.784,96.285,670.747,95.127Z" transform="translate(-475.832 -57.961)" fill="#fff"/>
          <path id="Trazado_713" data-name="Trazado 713" d="M677.3,98.843l-200.1,87.092c.326,1.474.666,2.942,1.053,4.392l201.6-87.74Q678.606,100.689,677.3,98.843Z" transform="translate(-474.583 -51.898)" fill="#fff"/>
          <path id="Trazado_714" data-name="Trazado 714" d="M681.778,102.769l-203.33,88.492q.722,2.116,1.526,4.189l203.875-88.732C683.181,105.39,682.5,104.066,681.778,102.769Z" transform="translate(-472.535 -45.493)" fill="#fff"/>
          <path id="Trazado_715" data-name="Trazado 715" d="M684.233,106.9,480.171,195.716q.955,2.017,1.992,3.987L685.88,111.04C685.364,109.645,684.8,108.271,684.233,106.9Z" transform="translate(-469.724 -38.749)" fill="#fff"/>
          <path id="Trazado_716" data-name="Trazado 716" d="M684.694,111.243,482.358,199.306c.787,1.281,1.613,2.539,2.45,3.784l201.067-87.508C685.512,114.122,685.112,112.68,684.694,111.243Z" transform="translate(-466.156 -31.669)" fill="#fff"/>
          <path id="Trazado_717" data-name="Trazado 717" d="M683.1,115.789l-198.059,86.2c.947,1.216,1.913,2.413,2.91,3.587l195.836-85.232Q683.484,118.051,683.1,115.789Z" transform="translate(-461.784 -24.252)" fill="#fff"/>
          <path id="Trazado_718" data-name="Trazado 718" d="M679.369,120.555l-191.155,83.2q1.689,1.713,3.45,3.35l187.855-81.758C679.5,123.739,679.456,122.139,679.369,120.555Z" transform="translate(-456.603 -16.477)" fill="#fff"/>
          <path id="Trazado_719" data-name="Trazado 719" d="M673.212,125.57,491.954,204.457q1.985,1.591,4.044,3.092l176.79-76.943C672.97,128.938,673.1,127.259,673.212,125.57Z" transform="translate(-450.501 -8.295)" fill="#fff"/>
          <path id="Trazado_720" data-name="Trazado 720" d="M664.249,130.87,496.356,203.942c1.571.958,3.168,1.884,4.789,2.766l161.922-70.472Q663.722,133.575,664.249,130.87Z" transform="translate(-443.32 0.351)" fill="#fff"/>
          <path id="Trazado_721" data-name="Trazado 721" d="M651.667,136.539l-150.06,65.309c1.905.826,3.834,1.61,5.792,2.331l142.073-61.833C650.259,140.439,650.985,138.5,651.667,136.539Z" transform="translate(-434.753 9.6)" fill="#fff"/>
          <path id="Trazado_722" data-name="Trazado 722" d="M633.993,142.729,508.05,197.544c2.463.621,4.966,1.134,7.492,1.592l114.593-49.873C631.49,147.129,632.785,144.958,633.993,142.729Z" transform="translate(-424.242 19.698)" fill="#fff"/>
          <path id="Trazado_723" data-name="Trazado 723" d="M527.956,189.153l71.409-31.08a110.991,110.991,0,0,0,7.718-8.213l-90.416,39.353c1.655.071,3.318.124,4.992.124C523.774,189.338,525.872,189.269,527.956,189.153Z" transform="translate(-410.184 31.334)" fill="#fff"/>
        </g>
      </g>
      <g id="Grupo_1489" data-name="Grupo 1489" transform="translate(61.96 239.458)" opacity="0.3">
        <g id="Grupo_1488" data-name="Grupo 1488">
          <path id="Trazado_724" data-name="Trazado 724" d="M139.548,118.744,83.288,143.23a112.364,112.364,0,0,0-9.757,9.1l79.43-34.569A113.758,113.758,0,0,0,139.548,118.744Z" transform="translate(-43.083 -117.76)" fill="#fff"/>
          <path id="Trazado_725" data-name="Trazado 725" d="M179.054,118.143,72.21,164.646q-2.305,3.292-4.376,6.757l119.232-51.894C184.43,118.956,181.756,118.509,179.054,118.143Z" transform="translate(-52.377 -117.135)" fill="#fff"/>
          <path id="Trazado_726" data-name="Trazado 726" d="M203.926,119.869,67.244,179.358q-1.334,2.929-2.5,5.942l145.281-63.233Q207.015,120.886,203.926,119.869Z" transform="translate(-57.421 -114.319)" fill="#fff"/>
          <path id="Trazado_727" data-name="Trazado 727" d="M222.3,122.308,64.372,191.043q-.758,2.7-1.381,5.455l164.3-71.509Q224.839,123.588,222.3,122.308Z" transform="translate(-60.278 -110.34)" fill="#fff"/>
          <path id="Trazado_728" data-name="Trazado 728" d="M236.527,125.19,62.734,200.83c-.234,1.692-.437,3.395-.592,5.11l178.587-77.727Q238.664,126.654,236.527,125.19Z" transform="translate(-61.663 -105.639)" fill="#fff"/>
          <path id="Trazado_729" data-name="Trazado 729" d="M247.665,128.4,62,209.209c-.008.5-.039,1-.039,1.505,0,1.116.053,2.218.087,3.326L251.228,131.7Q249.483,130.017,247.665,128.4Z" transform="translate(-61.96 -100.397)" fill="#fff"/>
          <path id="Trazado_730" data-name="Trazado 730" d="M256.509,131.885,62.186,216.459c.161,1.542.366,3.071.589,4.594l196.773-85.64C258.561,134.214,257.543,133.043,256.509,131.885Z" transform="translate(-61.591 -94.716)" fill="#fff"/>
          <path id="Trazado_731" data-name="Trazado 731" d="M263.059,135.6,62.952,222.692c.326,1.474.668,2.942,1.053,4.394l201.6-87.74Q264.365,137.445,263.059,135.6Z" transform="translate(-60.342 -88.655)" fill="#fff"/>
          <path id="Trazado_732" data-name="Trazado 732" d="M267.538,139.526,64.208,228.021c.482,1.408.987,2.805,1.526,4.187l203.875-88.729C268.941,142.147,268.259,140.826,267.538,139.526Z" transform="translate(-58.293 -82.25)" fill="#fff"/>
          <path id="Trazado_733" data-name="Trazado 733" d="M269.993,143.66,65.931,232.476c.634,1.345,1.3,2.671,1.989,3.984L271.64,147.8C271.122,146.4,270.564,145.028,269.993,143.66Z" transform="translate(-55.482 -75.506)" fill="#fff"/>
          <path id="Trazado_734" data-name="Trazado 734" d="M270.453,148,68.117,236.062c.789,1.281,1.613,2.539,2.452,3.787l201.064-87.511C271.273,150.88,270.874,149.435,270.453,148Z" transform="translate(-51.915 -68.424)" fill="#fff"/>
          <path id="Trazado_735" data-name="Trazado 735" d="M268.856,152.547,70.8,238.747c.95,1.213,1.916,2.413,2.913,3.584L269.543,157.1Q269.247,154.806,268.856,152.547Z" transform="translate(-47.543 -61.008)" fill="#fff"/>
          <path id="Trazado_736" data-name="Trazado 736" d="M265.126,157.312l-191.152,83.2q1.685,1.713,3.447,3.352L265.276,162.1C265.255,160.5,265.215,158.9,265.126,157.312Z" transform="translate(-42.36 -53.234)" fill="#fff"/>
          <path id="Trazado_737" data-name="Trazado 737" d="M258.971,162.327,77.713,241.214q1.989,1.591,4.045,3.092l176.79-76.94C258.729,165.7,258.866,164.016,258.971,162.327Z" transform="translate(-36.26 -45.052)" fill="#fff"/>
          <path id="Trazado_738" data-name="Trazado 738" d="M250.008,167.627,82.115,240.7q2.36,1.441,4.792,2.768L248.829,173Q249.484,170.335,250.008,167.627Z" transform="translate(-29.079 -36.406)" fill="#fff"/>
          <path id="Trazado_739" data-name="Trazado 739" d="M237.424,173.3,87.367,238.606c1.905.824,3.831,1.61,5.792,2.331L235.232,179.1Q236.412,176.239,237.424,173.3Z" transform="translate(-20.51 -27.156)" fill="#fff"/>
          <path id="Trazado_740" data-name="Trazado 740" d="M219.753,179.487,93.81,234.3c2.46.624,4.965,1.137,7.489,1.592l114.6-49.873C217.25,183.887,218.545,181.713,219.753,179.487Z" transform="translate(-9.999 -17.057)" fill="#fff"/>
          <path id="Trazado_741" data-name="Trazado 741" d="M113.717,225.909l71.409-31.08a111.514,111.514,0,0,0,7.718-8.21l-90.418,39.35c1.658.074,3.321.126,4.994.126C109.533,226.1,111.631,226.025,113.717,225.909Z" transform="translate(4.057 -5.422)" fill="#fff"/>
        </g>
      </g>
      <g id="Grupo_1491" data-name="Grupo 1491" transform="translate(714.5 677.006)" opacity="0.3">
        <g id="Grupo_1490" data-name="Grupo 1490">
          <path id="Trazado_742" data-name="Trazado 742" d="M304.909,285.022l-56.26,24.485a111.589,111.589,0,0,0-9.757,9.1l79.427-34.569A113.158,113.158,0,0,0,304.909,285.022Z" transform="translate(-208.444 -284.038)" fill="#fff"/>
          <path id="Trazado_743" data-name="Trazado 743" d="M344.415,284.421l-106.844,46.5q-2.309,3.292-4.376,6.755l119.232-51.892C349.791,285.232,347.115,284.787,344.415,284.421Z" transform="translate(-217.738 -283.413)" fill="#fff"/>
          <path id="Trazado_744" data-name="Trazado 744" d="M369.284,286.147,232.6,345.636c-.887,1.95-1.726,3.929-2.5,5.939l145.281-63.23Q372.376,287.164,369.284,286.147Z" transform="translate(-222.782 -280.597)" fill="#fff"/>
          <path id="Trazado_745" data-name="Trazado 745" d="M387.664,288.586,229.731,357.321q-.758,2.7-1.379,5.455l164.3-71.512Q390.2,289.864,387.664,288.586Z" transform="translate(-225.639 -276.618)" fill="#fff"/>
          <path id="Trazado_746" data-name="Trazado 746" d="M401.885,291.468l-173.792,75.64c-.234,1.692-.434,3.392-.589,5.107l178.584-77.724Q404.027,292.932,401.885,291.468Z" transform="translate(-227.024 -271.917)" fill="#fff"/>
          <path id="Trazado_747" data-name="Trazado 747" d="M413.023,294.68,227.36,375.488c-.008.5-.039,1-.039,1.505,0,1.116.053,2.218.084,3.326l189.184-82.337C415.423,296.859,414.239,295.754,413.023,294.68Z" transform="translate(-227.321 -266.676)" fill="#fff"/>
          <path id="Trazado_748" data-name="Trazado 748" d="M421.867,298.163l-194.32,84.571c.161,1.545.366,3.073.589,4.6l196.773-85.64C423.922,300.492,422.9,299.321,421.867,298.163Z" transform="translate(-226.952 -260.994)" fill="#fff"/>
          <path id="Trazado_749" data-name="Trazado 749" d="M428.417,301.878l-200.1,87.092c.326,1.474.668,2.942,1.053,4.394l201.6-87.742Q429.726,303.724,428.417,301.878Z" transform="translate(-225.703 -254.933)" fill="#fff"/>
          <path id="Trazado_750" data-name="Trazado 750" d="M432.9,305.8,229.568,394.3q.722,2.112,1.526,4.187l203.878-88.732C434.3,308.425,433.619,307.1,432.9,305.8Z" transform="translate(-223.655 -248.528)" fill="#fff"/>
          <path id="Trazado_751" data-name="Trazado 751" d="M435.351,309.938,231.292,398.751c.634,1.347,1.3,2.671,1.989,3.987L437,314.075C436.483,312.68,435.922,311.306,435.351,309.938Z" transform="translate(-220.843 -241.784)" fill="#fff"/>
          <path id="Trazado_752" data-name="Trazado 752" d="M435.813,314.278,233.478,402.341c.789,1.282,1.613,2.539,2.452,3.787l201.064-87.511C436.632,317.159,436.232,315.715,435.813,314.278Z" transform="translate(-217.276 -234.704)" fill="#fff"/>
          <path id="Trazado_753" data-name="Trazado 753" d="M434.217,318.824l-198.059,86.2c.947,1.213,1.913,2.41,2.91,3.584L434.9,323.379Q434.6,321.086,434.217,318.824Z" transform="translate(-212.904 -227.287)" fill="#fff"/>
          <path id="Trazado_754" data-name="Trazado 754" d="M430.487,323.59l-191.152,83.2q1.685,1.713,3.447,3.352l187.855-81.761C430.616,326.774,430.576,325.177,430.487,323.59Z" transform="translate(-207.721 -219.512)" fill="#fff"/>
          <path id="Trazado_755" data-name="Trazado 755" d="M424.332,328.605,243.074,407.493q1.985,1.591,4.044,3.092l176.79-76.943C424.09,331.976,424.224,330.294,424.332,328.605Z" transform="translate(-201.621 -211.33)" fill="#fff"/>
          <path id="Trazado_756" data-name="Trazado 756" d="M415.369,333.9,247.476,406.977q2.356,1.441,4.789,2.768l161.922-70.475Q414.842,336.614,415.369,333.9Z" transform="translate(-194.44 -202.684)" fill="#fff"/>
          <path id="Trazado_757" data-name="Trazado 757" d="M402.787,339.575l-150.06,65.309c1.905.824,3.834,1.61,5.794,2.331L400.592,345.38C401.379,343.472,402.105,341.535,402.787,339.575Z" transform="translate(-185.873 -193.434)" fill="#fff"/>
          <path id="Trazado_758" data-name="Trazado 758" d="M385.111,345.765l-125.94,54.813c2.46.624,4.963,1.137,7.489,1.592L381.253,352.3C382.609,350.162,383.9,347.991,385.111,345.765Z" transform="translate(-175.36 -183.335)" fill="#fff"/>
          <path id="Trazado_759" data-name="Trazado 759" d="M279.076,392.187l71.409-31.08a110.959,110.959,0,0,0,7.718-8.21l-90.416,39.35c1.658.074,3.318.126,4.994.126C274.895,392.374,276.992,392.3,279.076,392.187Z" transform="translate(-161.304 -171.7)" fill="#fff"/>
        </g>
      </g>
      <g id="Grupo_1495" data-name="Grupo 1495" transform="translate(1822.904 853.116)">
        <g id="Grupo_1492" data-name="Grupo 1492" transform="translate(0 12.349)">
          <path id="Trazado_760" data-name="Trazado 760" d="M532.792,359.715a4.307,4.307,0,1,1-4.3-4.058A4.184,4.184,0,0,1,532.792,359.715Z" transform="translate(-524.192 -355.657)" fill="#fff"/>
          <path id="Trazado_761" data-name="Trazado 761" d="M532.808,368.01a4.307,4.307,0,1,1-4.3-4.058A4.184,4.184,0,0,1,532.808,368.01Z" transform="translate(-524.166 -342.124)" fill="#fff"/>
          <path id="Trazado_762" data-name="Trazado 762" d="M532.808,376.3a4.307,4.307,0,1,1-4.3-4.058A4.184,4.184,0,0,1,532.808,376.3Z" transform="translate(-524.166 -328.592)" fill="#fff"/>
          <path id="Trazado_763" data-name="Trazado 763" d="M532.808,384.6a4.307,4.307,0,1,1-4.3-4.058A4.184,4.184,0,0,1,532.808,384.6Z" transform="translate(-524.166 -315.059)" fill="#fff"/>
          <path id="Trazado_764" data-name="Trazado 764" d="M532.808,392.895a4.307,4.307,0,1,1-4.3-4.058A4.184,4.184,0,0,1,532.808,392.895Z" transform="translate(-524.166 -301.526)" fill="#fff"/>
          <path id="Trazado_765" data-name="Trazado 765" d="M532.808,401.19a4.307,4.307,0,1,1-4.3-4.058A4.184,4.184,0,0,1,532.808,401.19Z" transform="translate(-524.166 -287.994)" fill="#fff"/>
        </g>
        <g id="Grupo_1493" data-name="Grupo 1493" transform="translate(42.171 12.349)">
          <path id="Trazado_766" data-name="Trazado 766" d="M548.818,359.715a4.307,4.307,0,1,1-4.3-4.058A4.184,4.184,0,0,1,548.818,359.715Z" transform="translate(-540.218 -355.657)" fill="#fff"/>
          <path id="Trazado_767" data-name="Trazado 767" d="M548.834,368.01a4.307,4.307,0,1,1-4.3-4.058A4.184,4.184,0,0,1,548.834,368.01Z" transform="translate(-540.192 -342.124)" fill="#fff"/>
          <path id="Trazado_768" data-name="Trazado 768" d="M548.834,376.3a4.307,4.307,0,1,1-4.3-4.058A4.184,4.184,0,0,1,548.834,376.3Z" transform="translate(-540.192 -328.592)" fill="#fff"/>
          <path id="Trazado_769" data-name="Trazado 769" d="M548.834,384.6a4.307,4.307,0,1,1-4.3-4.058A4.184,4.184,0,0,1,548.834,384.6Z" transform="translate(-540.192 -315.059)" fill="#fff"/>
          <path id="Trazado_770" data-name="Trazado 770" d="M548.834,392.895a4.307,4.307,0,1,1-4.3-4.058A4.184,4.184,0,0,1,548.834,392.895Z" transform="translate(-540.192 -301.526)" fill="#fff"/>
          <path id="Trazado_771" data-name="Trazado 771" d="M548.834,401.19a4.307,4.307,0,1,1-4.3-4.058A4.184,4.184,0,0,1,548.834,401.19Z" transform="translate(-540.192 -287.994)" fill="#fff"/>
        </g>
        <g id="Grupo_1494" data-name="Grupo 1494" transform="translate(19.891)">
          <path id="Trazado_772" data-name="Trazado 772" d="M540.351,355.022a4.307,4.307,0,1,1-4.3-4.058A4.186,4.186,0,0,1,540.351,355.022Z" transform="translate(-531.751 -350.964)" fill="#fff"/>
          <path id="Trazado_773" data-name="Trazado 773" d="M540.366,363.317a4.307,4.307,0,1,1-4.3-4.058A4.186,4.186,0,0,1,540.366,363.317Z" transform="translate(-531.725 -337.431)" fill="#fff"/>
          <path id="Trazado_774" data-name="Trazado 774" d="M540.366,371.612a4.307,4.307,0,1,1-4.3-4.058A4.186,4.186,0,0,1,540.366,371.612Z" transform="translate(-531.725 -323.899)" fill="#fff"/>
          <path id="Trazado_775" data-name="Trazado 775" d="M540.366,379.907a4.307,4.307,0,1,1-4.3-4.058A4.186,4.186,0,0,1,540.366,379.907Z" transform="translate(-531.725 -310.366)" fill="#fff"/>
          <path id="Trazado_776" data-name="Trazado 776" d="M540.366,388.2a4.307,4.307,0,1,1-4.3-4.058A4.186,4.186,0,0,1,540.366,388.2Z" transform="translate(-531.725 -296.833)" fill="#fff"/>
          <path id="Trazado_777" data-name="Trazado 777" d="M540.366,396.5a4.307,4.307,0,1,1-4.3-4.058A4.184,4.184,0,0,1,540.366,396.5Z" transform="translate(-531.725 -283.301)" fill="#fff"/>
        </g>
      </g>
      <g id="Grupo_1499" data-name="Grupo 1499" transform="translate(351.718 23.164)">
        <g id="Grupo_1496" data-name="Grupo 1496" transform="translate(0 12.349)">
          <path id="Trazado_778" data-name="Trazado 778" d="M179.339,51.915a4.307,4.307,0,1,1-4.3-4.058A4.184,4.184,0,0,1,179.339,51.915Z" transform="translate(-170.739 -47.857)" fill="#fff"/>
          <ellipse id="Elipse_34" data-name="Elipse 34" cx="4.3" cy="4.057" rx="4.3" ry="4.057" transform="translate(0.042 21.829)" fill="#fff"/>
          <path id="Trazado_779" data-name="Trazado 779" d="M179.354,68.5a4.307,4.307,0,1,1-4.3-4.058A4.182,4.182,0,0,1,179.354,68.5Z" transform="translate(-170.713 -20.792)" fill="#fff"/>
          <path id="Trazado_780" data-name="Trazado 780" d="M179.354,76.8a4.307,4.307,0,1,1-4.3-4.058A4.182,4.182,0,0,1,179.354,76.8Z" transform="translate(-170.713 -7.259)" fill="#fff"/>
          <path id="Trazado_781" data-name="Trazado 781" d="M179.354,85.095a4.307,4.307,0,1,1-4.3-4.058A4.182,4.182,0,0,1,179.354,85.095Z" transform="translate(-170.713 6.274)" fill="#fff"/>
          <path id="Trazado_782" data-name="Trazado 782" d="M179.354,93.39a4.307,4.307,0,1,1-4.3-4.058A4.182,4.182,0,0,1,179.354,93.39Z" transform="translate(-170.713 19.806)" fill="#fff"/>
        </g>
        <g id="Grupo_1497" data-name="Grupo 1497" transform="translate(42.171 12.349)">
          <path id="Trazado_783" data-name="Trazado 783" d="M195.365,51.915a4.307,4.307,0,1,1-4.3-4.058A4.184,4.184,0,0,1,195.365,51.915Z" transform="translate(-186.765 -47.857)" fill="#fff"/>
          <path id="Trazado_784" data-name="Trazado 784" d="M195.38,60.21a4.307,4.307,0,1,1-4.3-4.058A4.184,4.184,0,0,1,195.38,60.21Z" transform="translate(-186.739 -34.324)" fill="#fff"/>
          <path id="Trazado_785" data-name="Trazado 785" d="M195.38,68.5a4.307,4.307,0,1,1-4.3-4.058A4.184,4.184,0,0,1,195.38,68.5Z" transform="translate(-186.739 -20.792)" fill="#fff"/>
          <path id="Trazado_786" data-name="Trazado 786" d="M195.38,76.8a4.307,4.307,0,1,1-4.3-4.058A4.184,4.184,0,0,1,195.38,76.8Z" transform="translate(-186.739 -7.259)" fill="#fff"/>
          <path id="Trazado_787" data-name="Trazado 787" d="M195.38,85.095a4.307,4.307,0,1,1-4.3-4.058A4.184,4.184,0,0,1,195.38,85.095Z" transform="translate(-186.739 6.274)" fill="#fff"/>
          <path id="Trazado_788" data-name="Trazado 788" d="M195.38,93.39a4.307,4.307,0,1,1-4.3-4.058A4.184,4.184,0,0,1,195.38,93.39Z" transform="translate(-186.739 19.806)" fill="#fff"/>
        </g>
        <g id="Grupo_1498" data-name="Grupo 1498" transform="translate(19.891)">
          <path id="Trazado_789" data-name="Trazado 789" d="M186.9,47.222a4.307,4.307,0,1,1-4.3-4.058A4.186,4.186,0,0,1,186.9,47.222Z" transform="translate(-178.298 -43.164)" fill="#fff"/>
          <path id="Trazado_790" data-name="Trazado 790" d="M186.914,55.517a4.307,4.307,0,1,1-4.3-4.058A4.186,4.186,0,0,1,186.914,55.517Z" transform="translate(-178.272 -29.631)" fill="#fff"/>
          <path id="Trazado_791" data-name="Trazado 791" d="M186.914,63.812a4.307,4.307,0,1,1-4.3-4.058A4.184,4.184,0,0,1,186.914,63.812Z" transform="translate(-178.272 -16.099)" fill="#fff"/>
          <path id="Trazado_792" data-name="Trazado 792" d="M186.914,72.107a4.307,4.307,0,1,1-4.3-4.058A4.184,4.184,0,0,1,186.914,72.107Z" transform="translate(-178.272 -2.566)" fill="#fff"/>
          <path id="Trazado_793" data-name="Trazado 793" d="M186.914,80.4a4.307,4.307,0,1,1-4.3-4.058A4.184,4.184,0,0,1,186.914,80.4Z" transform="translate(-178.272 10.967)" fill="#fff"/>
          <path id="Trazado_794" data-name="Trazado 794" d="M186.914,88.7a4.307,4.307,0,1,1-4.3-4.058A4.184,4.184,0,0,1,186.914,88.7Z" transform="translate(-178.272 24.499)" fill="#fff"/>
        </g>
      </g>
      <g id="Grupo_1504" data-name="Grupo 1504" transform="translate(1432.842 281.779)">
        <g id="Grupo_1503" data-name="Grupo 1503">
          <g id="Grupo_1500" data-name="Grupo 1500" transform="translate(13.012 43.54)">
            <path id="Trazado_795" data-name="Trazado 795" d="M258.958,132.164a4.442,4.442,0,1,1-4.273,4.439A4.36,4.36,0,0,1,258.958,132.164Z" transform="translate(-254.685 -132.122)" fill="#fff"/>
            <path id="Trazado_796" data-name="Trazado 796" d="M267.7,132.148a4.441,4.441,0,1,1-4.273,4.439A4.358,4.358,0,0,1,267.7,132.148Z" transform="translate(-240.428 -132.148)" fill="#fff"/>
            <path id="Trazado_797" data-name="Trazado 797" d="M276.436,132.148a4.441,4.441,0,1,1-4.273,4.439A4.358,4.358,0,0,1,276.436,132.148Z" transform="translate(-226.171 -132.148)" fill="#fff"/>
            <path id="Trazado_798" data-name="Trazado 798" d="M285.175,132.148a4.441,4.441,0,1,1-4.273,4.439A4.358,4.358,0,0,1,285.175,132.148Z" transform="translate(-211.914 -132.148)" fill="#fff"/>
            <path id="Trazado_799" data-name="Trazado 799" d="M293.914,132.148a4.441,4.441,0,1,1-4.273,4.439A4.358,4.358,0,0,1,293.914,132.148Z" transform="translate(-197.657 -132.148)" fill="#fff"/>
            <path id="Trazado_800" data-name="Trazado 800" d="M302.653,132.148a4.441,4.441,0,1,1-4.273,4.439A4.358,4.358,0,0,1,302.653,132.148Z" transform="translate(-183.4 -132.148)" fill="#fff"/>
          </g>
          <g id="Grupo_1501" data-name="Grupo 1501" transform="translate(13.012)">
            <path id="Trazado_801" data-name="Trazado 801" d="M258.958,115.618a4.442,4.442,0,1,1-4.273,4.439A4.36,4.36,0,0,1,258.958,115.618Z" transform="translate(-254.685 -115.576)" fill="#fff"/>
            <path id="Trazado_802" data-name="Trazado 802" d="M267.7,115.6a4.442,4.442,0,1,1-4.273,4.439A4.358,4.358,0,0,1,267.7,115.6Z" transform="translate(-240.428 -115.602)" fill="#fff"/>
            <path id="Trazado_803" data-name="Trazado 803" d="M276.436,115.6a4.442,4.442,0,1,1-4.273,4.439A4.358,4.358,0,0,1,276.436,115.6Z" transform="translate(-226.171 -115.602)" fill="#fff"/>
            <path id="Trazado_804" data-name="Trazado 804" d="M285.175,115.6a4.442,4.442,0,1,1-4.273,4.439A4.358,4.358,0,0,1,285.175,115.6Z" transform="translate(-211.914 -115.602)" fill="#fff"/>
            <path id="Trazado_805" data-name="Trazado 805" d="M293.914,115.6a4.442,4.442,0,1,1-4.273,4.439A4.358,4.358,0,0,1,293.914,115.6Z" transform="translate(-197.657 -115.602)" fill="#fff"/>
            <path id="Trazado_806" data-name="Trazado 806" d="M302.653,115.6a4.442,4.442,0,1,1-4.273,4.439A4.358,4.358,0,0,1,302.653,115.6Z" transform="translate(-183.4 -115.602)" fill="#fff"/>
          </g>
          <g id="Grupo_1502" data-name="Grupo 1502" transform="translate(0 23.004)">
            <path id="Trazado_807" data-name="Trazado 807" d="M254.016,124.36a4.442,4.442,0,1,1-4.276,4.439A4.358,4.358,0,0,1,254.016,124.36Z" transform="translate(-249.74 -124.318)" fill="#fff"/>
            <path id="Trazado_808" data-name="Trazado 808" d="M262.755,124.344a4.442,4.442,0,1,1-4.276,4.439A4.358,4.358,0,0,1,262.755,124.344Z" transform="translate(-235.483 -124.344)" fill="#fff"/>
            <path id="Trazado_809" data-name="Trazado 809" d="M271.494,124.344a4.442,4.442,0,1,1-4.276,4.439A4.358,4.358,0,0,1,271.494,124.344Z" transform="translate(-221.226 -124.344)" fill="#fff"/>
            <path id="Trazado_810" data-name="Trazado 810" d="M280.23,124.344a4.442,4.442,0,1,1-4.273,4.439A4.359,4.359,0,0,1,280.23,124.344Z" transform="translate(-206.969 -124.344)" fill="#fff"/>
            <path id="Trazado_811" data-name="Trazado 811" d="M288.969,124.344a4.442,4.442,0,1,1-4.273,4.439A4.36,4.36,0,0,1,288.969,124.344Z" transform="translate(-192.712 -124.344)" fill="#fff"/>
            <path id="Trazado_812" data-name="Trazado 812" d="M297.708,124.344a4.442,4.442,0,1,1-4.273,4.439A4.36,4.36,0,0,1,297.708,124.344Z" transform="translate(-178.455 -124.344)" fill="#fff"/>
          </g>
        </g>
      </g>
      <g id="Grupo_1509" data-name="Grupo 1509" transform="translate(444.351 917.918)">
        <g id="Grupo_1508" data-name="Grupo 1508">
          <g id="Grupo_1505" data-name="Grupo 1505">
            <path id="Trazado_813" data-name="Trazado 813" d="M209.262,384.468a4.442,4.442,0,1,1,4.273-4.439A4.36,4.36,0,0,1,209.262,384.468Z" transform="translate(-90.009 -375.59)" fill="#fff"/>
            <path id="Trazado_814" data-name="Trazado 814" d="M200.521,384.484a4.442,4.442,0,1,1,4.273-4.439A4.358,4.358,0,0,1,200.521,384.484Z" transform="translate(-104.264 -375.564)" fill="#fff"/>
            <path id="Trazado_815" data-name="Trazado 815" d="M191.782,384.484a4.442,4.442,0,1,1,4.273-4.439A4.358,4.358,0,0,1,191.782,384.484Z" transform="translate(-118.521 -375.564)" fill="#fff"/>
            <path id="Trazado_816" data-name="Trazado 816" d="M183.043,384.484a4.442,4.442,0,1,1,4.273-4.439A4.358,4.358,0,0,1,183.043,384.484Z" transform="translate(-132.778 -375.564)" fill="#fff"/>
            <ellipse id="Elipse_35" data-name="Elipse 35" cx="4.274" cy="4.439" rx="4.274" ry="4.439" transform="translate(22.996 0.043)" fill="#fff"/>
            <path id="Trazado_817" data-name="Trazado 817" d="M165.565,384.484a4.442,4.442,0,1,1,4.276-4.439A4.358,4.358,0,0,1,165.565,384.484Z" transform="translate(-161.292 -375.564)" fill="#fff"/>
          </g>
          <g id="Grupo_1506" data-name="Grupo 1506" transform="translate(0 43.54)">
            <path id="Trazado_818" data-name="Trazado 818" d="M209.262,401.014a4.442,4.442,0,1,1,4.273-4.439A4.36,4.36,0,0,1,209.262,401.014Z" transform="translate(-90.009 -392.136)" fill="#fff"/>
            <path id="Trazado_819" data-name="Trazado 819" d="M200.521,401.029a4.441,4.441,0,1,1,4.273-4.439A4.358,4.358,0,0,1,200.521,401.029Z" transform="translate(-104.264 -392.108)" fill="#fff"/>
            <path id="Trazado_820" data-name="Trazado 820" d="M191.782,401.029a4.441,4.441,0,1,1,4.273-4.439A4.358,4.358,0,0,1,191.782,401.029Z" transform="translate(-118.521 -392.108)" fill="#fff"/>
            <path id="Trazado_821" data-name="Trazado 821" d="M183.043,401.029a4.441,4.441,0,1,1,4.273-4.439A4.358,4.358,0,0,1,183.043,401.029Z" transform="translate(-132.778 -392.108)" fill="#fff"/>
            <path id="Trazado_822" data-name="Trazado 822" d="M174.3,401.029a4.441,4.441,0,1,1,4.273-4.439A4.358,4.358,0,0,1,174.3,401.029Z" transform="translate(-147.035 -392.108)" fill="#fff"/>
            <path id="Trazado_823" data-name="Trazado 823" d="M165.565,401.029a4.441,4.441,0,1,1,4.276-4.439A4.358,4.358,0,0,1,165.565,401.029Z" transform="translate(-161.292 -392.108)" fill="#fff"/>
          </g>
          <g id="Grupo_1507" data-name="Grupo 1507" transform="translate(13.012 20.536)">
            <path id="Trazado_824" data-name="Trazado 824" d="M214.2,392.272a4.442,4.442,0,1,1,4.276-4.439A4.358,4.358,0,0,1,214.2,392.272Z" transform="translate(-94.954 -383.394)" fill="#fff"/>
            <path id="Trazado_825" data-name="Trazado 825" d="M205.465,392.288a4.442,4.442,0,1,1,4.276-4.439A4.358,4.358,0,0,1,205.465,392.288Z" transform="translate(-109.211 -383.368)" fill="#fff"/>
            <path id="Trazado_826" data-name="Trazado 826" d="M196.729,392.288A4.442,4.442,0,1,1,201,387.849,4.358,4.358,0,0,1,196.729,392.288Z" transform="translate(-123.468 -383.368)" fill="#fff"/>
            <path id="Trazado_827" data-name="Trazado 827" d="M187.99,392.288a4.442,4.442,0,1,1,4.273-4.439A4.36,4.36,0,0,1,187.99,392.288Z" transform="translate(-137.725 -383.368)" fill="#fff"/>
            <path id="Trazado_828" data-name="Trazado 828" d="M179.251,392.288a4.442,4.442,0,1,1,4.273-4.439A4.36,4.36,0,0,1,179.251,392.288Z" transform="translate(-151.982 -383.368)" fill="#fff"/>
            <path id="Trazado_829" data-name="Trazado 829" d="M170.51,392.288a4.442,4.442,0,1,1,4.273-4.439A4.358,4.358,0,0,1,170.51,392.288Z" transform="translate(-166.237 -383.368)" fill="#fff"/>
          </g>
        </g>
      </g>
      <g id="Grupo_1511" data-name="Grupo 1511" transform="translate(1600.648 918.839)" opacity="0.3">
        <g id="Grupo_1510" data-name="Grupo 1510">
          <path id="Trazado_830" data-name="Trazado 830" d="M494.93,376.648l-40.027,17.6a79.5,79.5,0,0,0-6.942,6.539l56.51-24.846A80.309,80.309,0,0,0,494.93,376.648Z" transform="translate(-426.3 -375.94)" fill="#fff"/>
          <path id="Trazado_831" data-name="Trazado 831" d="M523.036,376.216l-76.014,33.419q-1.642,2.364-3.113,4.855l84.829-37.3C526.862,376.8,524.959,376.477,523.036,376.216Z" transform="translate(-432.912 -375.49)" fill="#fff"/>
          <path id="Trazado_832" data-name="Trazado 832" d="M540.732,377.456l-97.244,42.753c-.632,1.4-1.229,2.824-1.779,4.271l103.362-45.445Q542.932,378.186,540.732,377.456Z" transform="translate(-436.501 -373.467)" fill="#fff"/>
          <path id="Trazado_833" data-name="Trazado 833" d="M553.809,379.209l-112.364,49.4q-.537,1.938-.981,3.918l116.9-51.392Q555.61,380.129,553.809,379.209Z" transform="translate(-438.534 -370.607)" fill="#fff"/>
          <path id="Trazado_834" data-name="Trazado 834" d="M563.928,381.28,440.28,435.64q-.253,1.824-.421,3.674l127.058-55.86Q565.449,382.333,563.928,381.28Z" transform="translate(-439.52 -367.228)" fill="#fff"/>
          <path id="Trazado_835" data-name="Trazado 835" d="M571.851,383.589,439.756,441.662c-.005.363-.026.721-.026,1.082,0,.8.037,1.595.06,2.392L574.385,385.96Q573.142,384.748,571.851,383.589Z" transform="translate(-439.73 -363.461)" fill="#fff"/>
          <path id="Trazado_836" data-name="Trazado 836" d="M578.142,386.092,439.89,446.873c.116,1.108.26,2.208.421,3.3l140-61.549C579.605,387.766,578.879,386.923,578.142,386.092Z" transform="translate(-439.469 -359.378)" fill="#fff"/>
          <path id="Trazado_837" data-name="Trazado 837" d="M582.8,388.762,440.435,451.353c.234,1.058.476,2.113.75,3.158l143.428-63.057Q583.733,390.088,582.8,388.762Z" transform="translate(-438.58 -355.022)" fill="#fff"/>
          <path id="Trazado_838" data-name="Trazado 838" d="M585.991,391.583l-144.663,63.6q.517,1.52,1.087,3.01l145.052-63.77C586.991,393.467,586.5,392.517,585.991,391.583Z" transform="translate(-437.123 -350.42)" fill="#fff"/>
          <path id="Trazado_839" data-name="Trazado 839" d="M587.736,394.554l-145.181,63.83c.45.966.926,1.918,1.416,2.863l144.936-63.72C588.541,396.525,588.144,395.538,587.736,394.554Z" transform="translate(-435.121 -345.573)" fill="#fff"/>
          <path id="Trazado_840" data-name="Trazado 840" d="M588.065,397.674,444.11,460.962c.561.921,1.147,1.824,1.745,2.721L588.9,400.79C588.649,399.742,588.365,398.706,588.065,397.674Z" transform="translate(-432.584 -340.483)" fill="#fff"/>
          <path id="Trazado_841" data-name="Trazado 841" d="M586.93,400.941,446.017,462.893c.674.871,1.361,1.731,2.071,2.576l139.329-61.257Q587.207,402.566,586.93,400.941Z" transform="translate(-429.473 -335.153)" fill="#fff"/>
          <path id="Trazado_842" data-name="Trazado 842" d="M584.274,404.366l-136,59.789c.8.824,1.618,1.624,2.452,2.41l133.653-58.76C584.366,406.653,584.338,405.506,584.274,404.366Z" transform="translate(-425.786 -329.565)" fill="#fff"/>
          <path id="Trazado_843" data-name="Trazado 843" d="M579.894,407.97,450.938,464.664q1.413,1.145,2.876,2.223l125.779-55.3C579.723,410.391,579.82,409.183,579.894,407.97Z" transform="translate(-421.445 -323.686)" fill="#fff"/>
          <path id="Trazado_844" data-name="Trazado 844" d="M573.52,411.779,454.069,464.294q1.677,1.034,3.408,1.989l115.2-50.647Q573.146,413.722,573.52,411.779Z" transform="translate(-416.337 -317.471)" fill="#fff"/>
          <path id="Trazado_845" data-name="Trazado 845" d="M564.567,415.854,457.8,462.791c1.358.592,2.729,1.155,4.124,1.674l101.078-44.437C563.567,418.654,564.083,417.262,564.567,415.854Z" transform="translate(-410.242 -310.823)" fill="#fff"/>
          <path id="Trazado_846" data-name="Trazado 846" d="M551.993,420.3l-89.6,39.4c1.75.447,3.531.816,5.329,1.145L549.248,425C550.211,423.465,551.132,421.9,551.993,420.3Z" transform="translate(-402.762 -303.567)" fill="#fff"/>
          <path id="Trazado_847" data-name="Trazado 847" d="M476.551,453.666l50.8-22.338a79.19,79.19,0,0,0,5.492-5.9l-64.328,28.28c1.179.053,2.36.092,3.552.092C473.575,453.8,475.067,453.747,476.551,453.666Z" transform="translate(-392.761 -295.204)" fill="#fff"/>
        </g>
      </g>
    </g>
  </g>
</svg>
