<svg xmlns="http://www.w3.org/2000/svg" viewBox="0 0 1920 285.31"><title>bg-top-cover</title><g id="7db5c0f7-9b99-400a-9ffe-926ac62b82df" data-name="Layer 2"><g id="da4fd9b9-76fb-4874-ae95-9fad050c0c57" data-name="Layer 1"><path id="3128d9c7-7cd8-4e74-bff0-6314d9e3d108" data-name="Unión 5" d="M0,285.31v-84H.3V34.51A389.19,389.19,0,0,1,93,6.21c80.89-14.15,168.47-3.76,232.9,27.6C410.8,75.17,462.41,151.88,568.7,162.46c70.17,7,138.13-17.9,205.71-42.79C845.68,93.44,916.53,67.21,989.1,78.32c64.11,9.83,110.08,47.55,174.48,56.64,58.45,8.25,116.59-8.3,175.33-24.83,49.37-13.9,99.17-27.8,149.95-27,64.82,1,121.1,26,184.48,33,31.57,3.48,64.08,2.42,96.61,1.37,30.32-1,60.65-2,90.25.74a219.54,219.54,0,0,1,59.52,13.85v69.2h.28v84Z" fill="#fbad49"/></g></g></svg>