<svg id="Grupo_1042" data-name="Grupo 1042" xmlns="http://www.w3.org/2000/svg" width="116.634" height="109.262" viewBox="0 0 116.634 109.262">
  <path id="Trazado_254" data-name="Trazado 254" d="M261.819,422.077c0-.121.015-.234.015-.355V355.008A4,4,0,0,0,257.827,351H215.476c.129.5.25,1.006.355,1.512.2.991.355,2,.469,3.025.053.5.091,1.006.121,1.512h38.956a.407.407,0,0,1,.408.408v64.619H168.074V384.444c-.355-.242-.711-.492-1.059-.749-.151-.113-.3-.227-.454-.348a30.829,30.829,0,0,1-3.025-2.662c-.522-.529-1.028-1.074-1.512-1.633v43.024H159v.756a5.3,5.3,0,0,0,3.871,5.1,1.584,1.584,0,0,0,.756.2h95.939a5.289,5.289,0,0,0,5.293-5.293v-.756Z" transform="translate(-152.951 -326.615)" fill="#61c4f2"/>
  <path id="Trazado_255" data-name="Trazado 255" d="M170.563,357.8a17.806,17.806,0,0,0,16.175,16.163v.074h2.685l.378-.046v-.028A17.781,17.781,0,0,0,205.964,357.8h.074v-2.686l-.046-.378h-.028A17.806,17.806,0,0,0,189.8,338.563V338.5h-2.685l-.378.035v.028a17.828,17.828,0,0,0-16.175,16.174H170.5v2.686l.035.378Zm25.38,11a19.759,19.759,0,0,0,1.84-4.035h2.479A14.634,14.634,0,0,1,195.943,368.8Zm5.986-7.112h-3.356a28.14,28.14,0,0,0,.473-3.887h3.835A14.725,14.725,0,0,1,201.93,361.688Zm0-10.838a14.725,14.725,0,0,1,.952,3.887h-3.835a28.14,28.14,0,0,0-.473-3.887Zm-1.667-3.078h-2.479a19.731,19.731,0,0,0-1.827-4.026A14.654,14.654,0,0,1,200.262,347.772Zm-10.462-5.9c1.916.741,3.621,2.849,4.769,5.9H189.8Zm0,8.982h5.66a26.64,26.64,0,0,1,.505,3.887H189.8Zm0,6.951h6.168a25.626,25.626,0,0,1-.507,3.887H189.8Zm0,6.965h4.769c-1.148,3.056-2.853,5.164-4.769,5.9Zm-13.524,0h2.479a19.757,19.757,0,0,0,1.827,4.027A14.675,14.675,0,0,1,176.276,364.766Zm10.461,5.9c-1.916-.741-3.62-2.848-4.768-5.9h4.768Zm0-8.982h-5.66a25.624,25.624,0,0,1-.507-3.887h6.167Zm0-19.821v5.9h-4.768C183.117,344.717,184.821,342.609,186.737,341.868Zm0,8.982v3.887H180.57a25.624,25.624,0,0,1,.507-3.887Zm-6.144-7.111a19.707,19.707,0,0,0-1.829,4.034h-2.488A14.655,14.655,0,0,1,180.594,343.739Zm-5.985,7.111h3.356a28.2,28.2,0,0,0-.473,3.887h-3.835A14.724,14.724,0,0,1,174.609,350.85Zm2.883,6.951a28.2,28.2,0,0,0,.473,3.887h-3.356a14.724,14.724,0,0,1-.952-3.887Z" transform="translate(-155.755 -323.566)" fill="#fd471d"/>
  <g id="Grupo_1041" data-name="Grupo 1041">
    <path id="Trazado_256" data-name="Trazado 256" d="M264.371,420.077h-1.512V354.52a5.521,5.521,0,0,0-5.52-5.52H214.55c.166.5.31,1.006.439,1.512s.25,1.006.355,1.512h42a2.5,2.5,0,0,1,2.5,2.5v65.557H256.81V356.97a1.923,1.923,0,0,0-1.921-1.921H215.812c.053.5.091,1.006.121,1.512s.038,1.006.045,1.512h37.807v62H216.47a1.505,1.505,0,0,0-1.308.749,1.5,1.5,0,0,1-1.3.764h-4.839a1.5,1.5,0,0,1-1.3-.764,1.505,1.505,0,0,0-1.308-.749H169.1v-35.16c-.514-.295-1.013-.62-1.512-.96-.355-.242-.711-.492-1.059-.749-.151-.113-.3-.227-.454-.348v37.217h-3.025V380.2c-.522-.529-1.028-1.074-1.512-1.633-.529-.612-1.036-1.248-1.512-1.9v43.41h-1.512A1.517,1.517,0,0,0,157,421.589v.756a6.817,6.817,0,0,0,4.786,6.5.028.028,0,0,0,.023.008,3.017,3.017,0,0,0,1.331.3h95.939a6.816,6.816,0,0,0,6.805-6.805v-.756A1.517,1.517,0,0,0,264.371,420.077Zm-2.291,4.567a.023.023,0,0,0-.008.015,3.8,3.8,0,0,1-2.994,1.467H163.805a3.493,3.493,0,0,1-.749-.076A3.8,3.8,0,0,1,160.1,423.1h45.557a4.534,4.534,0,0,0,3.365,1.512h4.839a4.522,4.522,0,0,0,3.365-1.512h45.557A3.737,3.737,0,0,1,262.08,424.644Z" transform="translate(-152.463 -326.127)" fill="#263357"/>
    <circle id="Elipse_23" data-name="Elipse 23" cx="1.701" cy="1.701" r="1.701" transform="translate(96.596 105.859)" fill="#263357"/>
    <circle id="Elipse_24" data-name="Elipse 24" cx="1.701" cy="1.701" r="1.701" transform="translate(113.231 45.368)" fill="#263357"/>
    <path id="Trazado_257" data-name="Trazado 257" d="M249.638,459H172.512a1.512,1.512,0,0,0,0,3.025h77.126a1.512,1.512,0,1,0,0-3.025Z" transform="translate(-155.877 -352.952)" fill="#263357"/>
    <path id="Trazado_258" data-name="Trazado 258" d="M212.137,418.512A1.512,1.512,0,0,0,210.625,417H180.379a1.512,1.512,0,1,0,0,3.025h30.245A1.512,1.512,0,0,0,212.137,418.512Z" transform="translate(-157.796 -342.71)" fill="#263357"/>
    <path id="Trazado_259" data-name="Trazado 259" d="M180.379,410.025h24.3a1.512,1.512,0,1,0,0-3.025h-24.3a1.512,1.512,0,1,0,0,3.025Z" transform="translate(-157.796 -340.271)" fill="#263357"/>
    <path id="Trazado_260" data-name="Trazado 260" d="M180.379,427a1.512,1.512,0,1,0,0,3.025h9.074a1.512,1.512,0,1,0,0-3.025Z" transform="translate(-157.796 -345.148)" fill="#263357"/>
    <path id="Trazado_261" data-name="Trazado 261" d="M200.379,427a1.512,1.512,0,1,0,0,3.025h12.1a1.512,1.512,0,1,0,0-3.025Z" transform="translate(-162.673 -345.148)" fill="#263357"/>
    <path id="Trazado_262" data-name="Trazado 262" d="M240.867,430.926v4.043a1.512,1.512,0,1,0,3.025,0v-4.043a1.512,1.512,0,1,0-3.025,0Z" transform="translate(-172.915 -345.737)" fill="#263357"/>
    <path id="Trazado_263" data-name="Trazado 263" d="M264.867,430.926v4.043a1.512,1.512,0,1,0,3.025,0v-4.043a1.512,1.512,0,1,0-3.025,0Z" transform="translate(-178.768 -345.737)" fill="#263357"/>
    <path id="Trazado_264" data-name="Trazado 264" d="M255.415,403.3a2.647,2.647,0,0,1-3.527,0,1.512,1.512,0,0,0-1.807,2.426,5.648,5.648,0,0,0,7.141,0,1.512,1.512,0,0,0-1.807-2.426Z" transform="translate(-175.014 -339.295)" fill="#263357"/>
    <path id="Trazado_265" data-name="Trazado 265" d="M233.113,387.942a8.016,8.016,0,0,0,2.054,3.328,16.687,16.687,0,0,0,5.225,8.1,14.042,14.042,0,0,0,9.108,3.682l.055,0,.065,0c.082,0,.164,0,.247,0a14.2,14.2,0,0,0,8.85-3.685,16.688,16.688,0,0,0,5.225-8.1A8.011,8.011,0,0,0,266,387.943c.329-1.061,1.2-4.578-1.04-6.2a12.968,12.968,0,0,0-4.288-13.566c-3.886-3.118-8.832-3.158-10.693-3.173h-.191l-.212,0-.243,0h-.19c-1.862.015-6.809.055-10.695,3.173a12.964,12.964,0,0,0-4.287,13.566C231.919,383.366,232.785,386.883,233.113,387.942Zm27.307-6.279a1.553,1.553,0,0,0-.28-.028h-5.33a3.73,3.73,0,0,0-2.721,1.185,5.631,5.631,0,0,0-2.386-.554h-.295a5.635,5.635,0,0,0-2.388.554,3.73,3.73,0,0,0-2.721-1.185h-5.33a1.538,1.538,0,0,0-.279.028,6.487,6.487,0,0,0-.712-.293,5.045,5.045,0,0,1,2.6-2.969c.989-.361,2.061-.042,3.473.405a18.468,18.468,0,0,0,4.829,1.008c.222.011.442.018.682.02.218,0,.437-.008.662-.02a18.47,18.47,0,0,0,4.827-1.008c1.412-.448,2.485-.767,3.473-.405a5.043,5.043,0,0,1,2.6,2.969A6.417,6.417,0,0,0,260.421,381.663Zm-1.792,3v2.3a.737.737,0,0,1-.727.727h-3.09a.737.737,0,0,1-.727-.727v-1.57a.737.737,0,0,1,.727-.727Zm-13.6.727v1.57a.737.737,0,0,1-.727.727h-3.09a.737.737,0,0,1-.727-.727v-2.3H244.3A.737.737,0,0,1,245.026,385.387Zm18.08,1.661a5.049,5.049,0,0,1-1.509,2.274,1.517,1.517,0,0,0-.463.755,13.661,13.661,0,0,1-4.36,6.971,11.074,11.074,0,0,1-7.069,2.977l-.087,0q-.064,0-.127,0l-.082,0a11.09,11.09,0,0,1-7.074-2.977,13.661,13.661,0,0,1-4.36-6.971,1.516,1.516,0,0,0-.463-.755,5.054,5.054,0,0,1-1.51-2.276c-.424-1.369-.38-2.672-.057-2.881a1.857,1.857,0,0,1,1.511.261v2.53a3.756,3.756,0,0,0,3.752,3.752h3.09a3.756,3.756,0,0,0,3.752-3.752v-1.239l.013-.009a2.293,2.293,0,0,1,1.4-.42h.187a2.32,2.32,0,0,1,1.381.405c.009.008.02.014.029.023v1.239a3.756,3.756,0,0,0,3.752,3.752h3.09a3.756,3.756,0,0,0,3.752-3.752v-2.53a1.854,1.854,0,0,1,1.511-.261C263.487,384.374,263.531,385.678,263.106,387.048Zm-26-11.657a9.98,9.98,0,0,1,3.229-4.858c3.067-2.46,7.1-2.493,8.827-2.507h.165l.243,0,.212,0h.166c1.723.014,5.759.047,8.826,2.507A9.978,9.978,0,0,1,262,375.392a9.737,9.737,0,0,1,.4,2.243,6.571,6.571,0,0,0-2.832-2.074,5.672,5.672,0,0,0-1.984-.352,11.286,11.286,0,0,0-3.443.714,15.465,15.465,0,0,1-4.072.87c-.177.009-.352.015-.5.016-.173,0-.349-.007-.523-.015a15.5,15.5,0,0,1-4.074-.871,11.286,11.286,0,0,0-3.443-.714,5.672,5.672,0,0,0-1.984.352,6.571,6.571,0,0,0-2.832,2.074A9.749,9.749,0,0,1,237.106,375.391Z" transform="translate(-170.917 -330.029)" fill="#263357"/>
    <path id="Trazado_266" data-name="Trazado 266" d="M266.689,432.977h.054a1.512,1.512,0,0,0,1.51-1.46c.054-1.592-.02-9.756-6.9-14.15a15.03,15.03,0,0,0-4.252-1.852,1.514,1.514,0,0,0-1.124.14,14.442,14.442,0,0,1-7.385,1.957h-.333a14.391,14.391,0,0,1-7.1-2,1.513,1.513,0,0,0-1.124-.147,14.865,14.865,0,0,0-4.4,1.9c-6.879,4.385-6.954,12.558-6.9,14.151a1.528,1.528,0,0,0,1.564,1.459,1.512,1.512,0,0,0,1.459-1.564c-.027-.8-.108-7.921,5.514-11.5a11.576,11.576,0,0,1,2.953-1.354,17.157,17.157,0,0,0,8.032,2.083h.3a17.037,17.037,0,0,0,8.327-2.035,11.849,11.849,0,0,1,2.839,1.314c5.611,3.584,5.531,10.7,5.5,11.5A1.512,1.512,0,0,0,266.689,432.977Z" transform="translate(-169.956 -342.324)" fill="#263357"/>
    <path id="Trazado_267" data-name="Trazado 267" d="M278.512,344.025h8.093a8.551,8.551,0,0,1,8.542,8.541v13.891a1.512,1.512,0,1,0,3.025,0V352.566A11.579,11.579,0,0,0,286.605,341h-8.093a1.512,1.512,0,0,0,0,3.025Z" transform="translate(-181.727 -324.176)" fill="#263357"/>
    <path id="Trazado_268" data-name="Trazado 268" d="M159,353.465a23.546,23.546,0,0,0,.206,3.186,26.462,26.462,0,0,0,32.378,22.565,18.369,18.369,0,0,0,5.024,3,17.866,17.866,0,0,0,6.659,1.278h0a18.336,18.336,0,0,0,4.6-.583,1.512,1.512,0,0,0,.6-2.616,9.736,9.736,0,0,1-3.281-5.883,9.464,9.464,0,0,1,.1-3.394A26.469,26.469,0,1,0,159,353.465Zm49.905,0a23.484,23.484,0,0,1-6.125,15.815,1.512,1.512,0,0,0-.349.656,12.547,12.547,0,0,0-.24,4.921,12.37,12.37,0,0,0,2.29,5.561c-.4.031-.808.048-1.214.048h0a14.867,14.867,0,0,1-5.54-1.063A15.411,15.411,0,0,1,193,376.438a1.513,1.513,0,0,0-1.411-.344,23.67,23.67,0,0,1-6.126.811,23.413,23.413,0,0,1-23.258-20.638,20.55,20.55,0,0,1-.182-2.8,23.44,23.44,0,0,1,46.88,0Z" transform="translate(-152.951 -320.762)" fill="#263357"/>
    <path id="Trazado_269" data-name="Trazado 269" d="M179.351,322.417a1.512,1.512,0,0,0-.424-2.994A32.656,32.656,0,0,0,151,351.613a1.512,1.512,0,1,0,3.025,0A29.618,29.618,0,0,1,179.351,322.417Z" transform="translate(-151 -318.91)" fill="#263357"/>
    <circle id="Elipse_25" data-name="Elipse 25" cx="1.701" cy="1.701" r="1.701" transform="translate(31.569)" fill="#263357"/>
  </g>
</svg>
