<svg id="Grupo_1046" data-name="Grupo 1046" xmlns="http://www.w3.org/2000/svg" width="109.295" height="105.742" viewBox="0 0 109.295 105.742">
  <g id="Grupo_1044" data-name="Grupo 1044" transform="translate(7.144 14.287)">
    <path id="Trazado_270" data-name="Trazado 270" d="M487.785,678.293c-.071-.286-.336-1.4-.843-3.5-.1-.436-.214-.907-.336-1.422a21.2,21.2,0,0,0-3.172,1.65c-.493.307-.964.636-1.429.986l-1.429-2.65C477.12,671.364,473.141,671,469.14,671h-3.95L442,671.007a1.433,1.433,0,0,1-1.429-1.429V616h-5.715A2.857,2.857,0,0,0,432,618.858v57.15a2.857,2.857,0,0,0,2.857,2.858H464.79a26.051,26.051,0,0,1,12.287,3.079l.5.264a9.358,9.358,0,0,0,8.858,0l.5-.264c.557-.3,1.129-.579,1.707-.836-.164-.457-.314-.907-.45-1.357Q487.968,679.011,487.785,678.293Z" transform="translate(-432 -616)" fill="#fd471d"/>
    <path id="Trazado_271" data-name="Trazado 271" d="M566.286,616H562v32.261a8.4,8.4,0,0,1,1.429.836,8.6,8.6,0,0,1,1.843,1.793c.093-.007.193-.007.286-.007a8.523,8.523,0,0,1,3.586.793V618.858A2.857,2.857,0,0,0,566.286,616Z" transform="translate(-469.131 -616)" fill="#fd471d"/>
  </g>
  <g id="Grupo_1045" data-name="Grupo 1045">
    <path id="Trazado_272" data-name="Trazado 272" d="M487.621,676.323c-.657.286-1.3.6-1.929.936l-.5.264a8.122,8.122,0,0,1-7.515,0l-.5-.264a27.515,27.515,0,0,0-12.959-3.25H434.286a1.433,1.433,0,0,1-1.429-1.429V615.43A1.433,1.433,0,0,1,434.286,614h2.857v51.435a4.293,4.293,0,0,0,4.286,4.286l27.139-.007a20.1,20.1,0,0,1,12.009,4.008c.031.023.067.031.1.051a1.41,1.41,0,0,0,.122.084c.04.02.084.029.124.045s.074.029.111.04a1.264,1.264,0,0,0,.8,0c.038-.011.074-.026.111-.04s.084-.025.124-.045a1.419,1.419,0,0,0,.122-.084c.032-.02.069-.029.1-.051a19.544,19.544,0,0,1,4.079-2.357c-.179-.771-.672-2.815-.672-2.815a23.08,23.08,0,0,0-2.836,1.379V610.622a14.148,14.148,0,0,1,9.644-3.765H521.44a1.433,1.433,0,0,1,1.429,1.429v36.033a8.551,8.551,0,0,1,2.857,1.35V614h2.857a1.433,1.433,0,0,1,1.429,1.429v32.3a8.652,8.652,0,0,1,2.857,1.35V615.43a4.29,4.29,0,0,0-4.286-4.286h-2.857v-2.858A4.29,4.29,0,0,0,521.44,604H492.508a16.963,16.963,0,0,0-11.073,4.076A16.963,16.963,0,0,0,470.362,604H441.43a4.29,4.29,0,0,0-4.286,4.286v2.858h-2.857A4.29,4.29,0,0,0,430,615.43v57.15a4.29,4.29,0,0,0,4.286,4.286h29.932a24.778,24.778,0,0,1,11.616,2.908l.493.271a10.841,10.841,0,0,0,10.216,0l.493-.271q.761-.407,1.543-.75c-.179-.45-.35-.9-.507-1.343S487.757,676.773,487.621,676.323ZM440,608.286a1.433,1.433,0,0,1,1.429-1.429h28.932a14.148,14.148,0,0,1,9.644,3.765V669.93a23.011,23.011,0,0,0-11.437-3.065H441.43A1.433,1.433,0,0,1,440,665.436v-57.15Z" transform="translate(-424.285 -598.285)" fill="#263357"/>
    <path id="Trazado_273" data-name="Trazado 273" d="M453.437,656.857h26.2a1.429,1.429,0,0,0,0-2.858h-26.2a1.429,1.429,0,0,0,0,2.858Z" transform="translate(-430.571 -612.566)" fill="#263357"/>
    <path id="Trazado_274" data-name="Trazado 274" d="M453.437,668.857h26.2a1.429,1.429,0,0,0,0-2.858h-26.2a1.429,1.429,0,0,0,0,2.858Z" transform="translate(-430.571 -615.994)" fill="#263357"/>
    <path id="Trazado_275" data-name="Trazado 275" d="M453.437,620.857h26.2a1.429,1.429,0,1,0,0-2.857h-26.2a1.429,1.429,0,1,0,0,2.857Z" transform="translate(-430.571 -602.284)" fill="#263357"/>
    <path id="Trazado_276" data-name="Trazado 276" d="M453.437,644.857h22.709a1.429,1.429,0,1,0,0-2.857H453.437a1.429,1.429,0,1,0,0,2.857Z" transform="translate(-430.571 -609.139)" fill="#263357"/>
    <path id="Trazado_277" data-name="Trazado 277" d="M453.437,680.857h17.139a1.429,1.429,0,1,0,0-2.857H453.437a1.429,1.429,0,1,0,0,2.857Z" transform="translate(-430.571 -619.421)" fill="#263357"/>
    <path id="Trazado_278" data-name="Trazado 278" d="M488.206,678h-4.778a1.429,1.429,0,1,0,0,2.857h4.778a1.429,1.429,0,1,0,0-2.857Z" transform="translate(-439.138 -619.421)" fill="#263357"/>
    <path id="Trazado_279" data-name="Trazado 279" d="M486.493,630h-9.064a1.429,1.429,0,1,0,0,2.857h9.064a1.429,1.429,0,1,0,0-2.857Z" transform="translate(-437.424 -605.711)" fill="#263357"/>
    <path id="Trazado_280" data-name="Trazado 280" d="M453.437,632.857H466.29a1.429,1.429,0,1,0,0-2.857H453.437a1.429,1.429,0,1,0,0,2.857Z" transform="translate(-430.571 -605.711)" fill="#263357"/>
    <path id="Trazado_281" data-name="Trazado 281" d="M520.611,642.021a1.316,1.316,0,0,0-.236-.021h-7.637a1.429,1.429,0,1,0,0,2.857h6.951A9.117,9.117,0,0,1,520.611,642.021Z" transform="translate(-447.509 -609.139)" fill="#263357"/>
    <path id="Trazado_282" data-name="Trazado 282" d="M540.373,631.429A1.429,1.429,0,0,0,538.944,630h-26.2a1.429,1.429,0,1,0,0,2.857h26.2A1.429,1.429,0,0,0,540.373,631.429Z" transform="translate(-447.51 -605.711)" fill="#263357"/>
    <path id="Trazado_283" data-name="Trazado 283" d="M519.582,654h-6.844a1.429,1.429,0,0,0,0,2.858h6.844Z" transform="translate(-447.509 -612.566)" fill="#263357"/>
    <path id="Trazado_284" data-name="Trazado 284" d="M512.742,620.857h17.139a1.429,1.429,0,0,0,0-2.857H512.742a1.429,1.429,0,1,0,0,2.857Z" transform="translate(-447.51 -602.284)" fill="#263357"/>
    <path id="Trazado_285" data-name="Trazado 285" d="M547.511,618h-4.777a1.429,1.429,0,1,0,0,2.857h4.777a1.429,1.429,0,1,0,0-2.857Z" transform="translate(-456.077 -602.284)" fill="#263357"/>
    <path id="Trazado_286" data-name="Trazado 286" d="M511.31,667.429a1.433,1.433,0,0,0,1.429,1.429h6.844V666h-6.844A1.433,1.433,0,0,0,511.31,667.429Z" transform="translate(-447.509 -615.994)" fill="#263357"/>
    <path id="Trazado_287" data-name="Trazado 287" d="M442,700.86H432a7.152,7.152,0,0,1-7.144-7.144V679.429a1.429,1.429,0,1,0-2.857,0v14.287a10.012,10.012,0,0,0,10,10h10a1.429,1.429,0,1,0,0-2.857Z" transform="translate(-422 -619.421)" fill="#263357"/>
    <path id="Trazado_288" data-name="Trazado 288" d="M535.429,598.857h15.716a7.1,7.1,0,0,1,3.945,1.191,1.429,1.429,0,1,0,1.583-2.379A9.946,9.946,0,0,0,551.145,596H535.429a1.429,1.429,0,0,0,0,2.857Z" transform="translate(-453.99 -596)" fill="#263357"/>
    <circle id="Elipse_26" data-name="Elipse 26" cx="1.789" cy="1.789" r="1.789" transform="translate(23.746 81.201)" fill="#263357"/>
    <circle id="Elipse_27" data-name="Elipse 27" cx="1.789" cy="1.789" r="1.789" transform="translate(103.756 3.743)" fill="#263357"/>
    <path id="Trazado_289" data-name="Trazado 289" d="M555.5,701.412H555.1a47.646,47.646,0,0,0,1.807-14.738v-20.4a4.984,4.984,0,0,0-7.374-4.383,4.986,4.986,0,0,0-7.618-2.483,4.97,4.97,0,0,0-6.4-1.906V645.671a5.76,5.76,0,0,0-5.754-5.754,5.7,5.7,0,0,0-5.676,5.754V680.25a14.452,14.452,0,0,1-1.232-2.168l-1.412-3.552a1.44,1.44,0,0,0-.133-.255l-.7-1.068a7.052,7.052,0,0,0-7.783-2.943,1.43,1.43,0,0,0-1.012,1.71l1.827,7.638c.684,2.856,1.036,4.326,1.115,4.645,1.031,4.132,3.375,8.768,6.94,13.74l2.283,3.415h-1.33a1.422,1.422,0,0,0-1.422,1.429v4.451a1.425,1.425,0,1,0,2.85,0V704.27h30.061v8.587a1.376,1.376,0,0,0,1.372,1.429,1.428,1.428,0,0,0,1.429-1.429V702.841A1.433,1.433,0,0,0,555.5,701.412Zm-28.094,0,0,0-3.369-5.038c-3.381-4.717-5.573-9.025-6.516-12.806-.079-.318-.429-1.779-1.109-4.618l-1.452-6.071a4.2,4.2,0,0,1,3.251,1.9l.621.947,1.359,3.418a17.385,17.385,0,0,0,1.763,3.2,2.687,2.687,0,0,0,4.9-1.518V645.671a2.9,2.9,0,1,1,5.791,0v21.092a1.429,1.429,0,1,0,2.857,0v-4.745a2.143,2.143,0,0,1,4.286,0v6.218a1.429,1.429,0,1,0,2.857,0v-4.744a2.143,2.143,0,0,1,4.286,0l.007,2.647c0,.047-.007.094-.007.141v2.272c0,.024.006.047.007.071v.546a1.425,1.425,0,1,0,2.85,0v-2.96a2.132,2.132,0,0,1,2.122-2.065,2.162,2.162,0,0,1,2.165,2.136l.007,20.467c0,.093.321,8.044-2.007,14.666Z" transform="translate(-447.64 -608.544)" fill="#263357"/>
    <path id="Trazado_290" data-name="Trazado 290" d="M533.415,732.69a2.134,2.134,0,1,0,2.972.523A2.134,2.134,0,0,0,533.415,732.69Z" transform="translate(-453.563 -634.932)" fill="#263357"/>
  </g>
</svg>
