<svg id="Grupo_1043" data-name="Grupo 1043" xmlns="http://www.w3.org/2000/svg" width="114.127" height="109.104" viewBox="0 0 114.127 109.104">
  <path id="Trazado_230" data-name="Trazado 230" d="M273.96,690.958,271.022,674.8c-1.754-9.67-7.031-17.029-16.088-20.01v8.329l-9.984-4.764-9.984,4.764V654.76c-9.128,2.967-14.433,10.326-16.2,20.039l-3.509,19.354L215,695.579h4.735a3.2,3.2,0,0,1,.435-1.426,3.8,3.8,0,0,1,.956-1.127l3.951-3.109c.271-.143.763-.406,1.341-.7a6.855,6.855,0,0,1,5.9-.143l2.1.948a2.133,2.133,0,0,1,1.219,2.36l-.342,1.768-.271,1.426h6.347a1.586,1.586,0,0,1-1.711-1.426,1.281,1.281,0,0,1,.5-1.013l4.778-4.05a4.924,4.924,0,0,1,3.851-1.055l1.868.228v7.317h19.981C272.934,695.579,274.417,693.482,273.96,690.958Z" transform="translate(-169.361 -605.016)" fill="#61c4f2"/>
  <path id="Trazado_231" data-name="Trazado 231" d="M186.514,656H156.567A3.578,3.578,0,0,0,153,659.568v21.389a3.578,3.578,0,0,0,3.567,3.568h29.947a3.578,3.578,0,0,0,3.567-3.568v-16.4L198.639,656Z" transform="translate(-151.574 -605.372)" fill="#fd471d"/>
  <g id="Grupo_1039" data-name="Grupo 1039">
    <path id="Trazado_232" data-name="Trazado 232" d="M249.385,623.26a1.426,1.426,0,0,0-1.426-1.426h-3.7a1.426,1.426,0,1,0,0,2.852h3.7A1.426,1.426,0,0,0,249.385,623.26Z" transform="translate(-177.345 -595.57)" fill="#263357"/>
    <path id="Trazado_233" data-name="Trazado 233" d="M262.969,624.686h3.7a1.426,1.426,0,1,0,0-2.852h-3.7a1.426,1.426,0,0,0,0,2.852Z" transform="translate(-182.713 -595.57)" fill="#263357"/>
    <path id="Trazado_234" data-name="Trazado 234" d="M249.635,639.009a1.426,1.426,0,0,0,.275,2,7.857,7.857,0,0,0,10.079,0,1.426,1.426,0,1,0-1.723-2.273,5.043,5.043,0,0,1-6.633,0A1.426,1.426,0,0,0,249.635,639.009Z" transform="translate(-179.214 -600.335)" fill="#263357"/>
    <circle id="Elipse_22" data-name="Elipse 22" cx="1.786" cy="1.786" r="1.786" transform="translate(106.426 71.249)" fill="#263357"/>
    <path id="Trazado_235" data-name="Trazado 235" d="M289.273,605.281a1.786,1.786,0,1,0,1.786-1.786A1.788,1.788,0,0,0,289.273,605.281Z" transform="translate(-190.668 -590.309)" fill="#263357"/>
    <path id="Trazado_236" data-name="Trazado 236" d="M204.281,616.551a1.786,1.786,0,1,0,1.786,1.786A1.789,1.789,0,0,0,204.281,616.551Z" transform="translate(-165.773 -594.054)" fill="#263357"/>
    <path id="Trazado_237" data-name="Trazado 237" d="M250.276,640.3h.11c5.3-.2,10.354-4.51,13.014-8.688a19.564,19.564,0,0,0,2.961-10.495,22.677,22.677,0,0,0-3.926-13.009,1.427,1.427,0,0,0-2.545.392c-.339,1.132-.67,2.263-1,3.394a66.109,66.109,0,0,1-8.583.5q-.63.01-1.251,0l-.01-3.484a1.427,1.427,0,0,0-2.63-.762l-2.529,3.974c-.727-.067-1.44-.139-2.118-.223-.329-1.132-.659-2.263-1-3.4a1.426,1.426,0,0,0-2.544-.393,22.675,22.675,0,0,0-3.927,13.009,19.858,19.858,0,0,0,2.962,10.5C239.922,635.786,244.978,640.092,250.276,640.3ZM237.152,621.06a19.392,19.392,0,0,1,1.835-8.525q.138.475.275.948l.029.1a1.427,1.427,0,0,0,1.174,1.016c1.259.173,2.62.32,4.045.436.023,0,.046,0,.068,0,.051,0,.1,0,.15,0a1.384,1.384,0,0,0,.146-.019c.039-.007.077-.015.116-.026a1.379,1.379,0,0,0,.153-.049c.036-.014.069-.029.1-.046a1.358,1.358,0,0,0,.138-.077c.034-.021.067-.044.1-.069a1.39,1.39,0,0,0,.116-.1c.03-.029.058-.058.086-.089a1.532,1.532,0,0,0,.1-.126c.013-.019.03-.034.042-.054l.38-.6c0,.036.009.071.011.106a1.318,1.318,0,0,0,.015.14c.009.047.023.092.036.138s.024.087.041.129a1.225,1.225,0,0,0,.061.128c.021.039.04.079.064.116a1.274,1.274,0,0,0,.083.112c.028.035.054.07.085.1s.067.063.1.093.068.06.106.086.077.048.116.071.079.046.121.066.087.033.13.048.088.031.134.041a1.3,1.3,0,0,0,.14.021c.037.005.072.015.11.017.9.043,1.841.057,2.754.044a69.465,69.465,0,0,0,9.874-.64,1.427,1.427,0,0,0,1.177-1.016l.3-1.048a19.4,19.4,0,0,1,1.835,8.527,16.858,16.858,0,0,1-2.515,9.015c-2.178,3.42-6.437,7.175-10.663,7.368-4.226-.193-8.485-3.948-10.663-7.367A16.867,16.867,0,0,1,237.152,621.06Z" transform="translate(-174.897 -591.452)" fill="#263357"/>
    <path id="Trazado_238" data-name="Trazado 238" d="M190.934,680.383V664.574l8.14-8.139A1.426,1.426,0,0,0,198.065,654H155.993A5,5,0,0,0,151,658.994v21.389a5,5,0,0,0,4.993,4.994h29.948A5,5,0,0,0,190.934,680.383Zm-37.081,0V658.994a2.144,2.144,0,0,1,2.141-2.141h38.629l-6.121,6.123a1.427,1.427,0,0,0-.418,1.008v16.4a2.144,2.144,0,0,1-2.141,2.141H155.993A2.144,2.144,0,0,1,153.852,680.383Z" transform="translate(-151 -604.798)" fill="#263357"/>
    <path id="Trazado_239" data-name="Trazado 239" d="M155.993,634.525h36.367a1.426,1.426,0,0,0,1.008-2.435l-8.14-8.139V610.994A5,5,0,0,0,180.236,606H155.993A5,5,0,0,0,151,610.994v18.537A5,5,0,0,0,155.993,634.525Zm-2.141-23.531a2.144,2.144,0,0,1,2.141-2.142h24.243a2.144,2.144,0,0,1,2.141,2.142v13.547a1.427,1.427,0,0,0,.418,1.008l6.123,6.123H155.993a2.144,2.144,0,0,1-2.141-2.141Z" transform="translate(-151 -591.028)" fill="#263357"/>
    <path id="Trazado_240" data-name="Trazado 240" d="M173.733,634.153a1.427,1.427,0,1,0,1.013.418A1.379,1.379,0,0,0,173.733,634.153Z" transform="translate(-157.111 -599.104)" fill="#263357"/>
    <path id="Trazado_241" data-name="Trazado 241" d="M168.925,620.661a1.342,1.342,0,0,0,.443-.3,1.545,1.545,0,0,0,.291-.433,1.348,1.348,0,0,0,.115-.551,2.387,2.387,0,0,1,.712-1.728,2.5,2.5,0,0,1,.779-.521,2.412,2.412,0,0,1,1.881,0,2.528,2.528,0,0,1,1.311,1.31,2.326,2.326,0,0,1,.193.934,2.388,2.388,0,0,1-.7,1.721l-1.592,1.48a4.838,4.838,0,0,0-1.54,3.492,1.331,1.331,0,0,0,.4.988,1.355,1.355,0,0,0,.99.394,1.352,1.352,0,0,0,1.382-1.382,2.106,2.106,0,0,1,.7-1.519l1.595-1.474a5.141,5.141,0,0,0,1.536-3.7,4.993,4.993,0,0,0-.416-2.007,5.352,5.352,0,0,0-2.776-2.783,5.134,5.134,0,0,0-4.037-.011,5.29,5.29,0,0,0-1.657,1.119,5.381,5.381,0,0,0-1.122,1.654,5.031,5.031,0,0,0-.417,2.029,1.364,1.364,0,0,0,.392.991A1.407,1.407,0,0,0,168.925,620.661Z" transform="translate(-155.59 -593.371)" fill="#263357"/>
    <path id="Trazado_242" data-name="Trazado 242" d="M185.245,664h-22.82a1.426,1.426,0,0,0,0,2.852h22.82a1.426,1.426,0,0,0,0-2.852Z" transform="translate(-153.869 -607.667)" fill="#263357"/>
    <path id="Trazado_243" data-name="Trazado 243" d="M162.425,676.852h8.557a1.426,1.426,0,1,0,0-2.852h-8.557a1.426,1.426,0,1,0,0,2.852Z" transform="translate(-153.869 -610.536)" fill="#263357"/>
    <path id="Trazado_244" data-name="Trazado 244" d="M183.278,676.852a1.426,1.426,0,1,0,0-2.852h-2.852a1.426,1.426,0,1,0,0,2.852Z" transform="translate(-159.032 -610.536)" fill="#263357"/>
    <path id="Trazado_245" data-name="Trazado 245" d="M180.966,684H162.425a1.426,1.426,0,0,0,0,2.852h18.541a1.426,1.426,0,0,0,0-2.852Z" transform="translate(-153.869 -613.405)" fill="#263357"/>
    <path id="Trazado_246" data-name="Trazado 246" d="M266,674.434h-7.071a5.919,5.919,0,0,0,.374-3.45l-2.938-16.158c-1.229-6.777-4.143-12.274-8.438-16.146a43.9,43.9,0,0,0,4.913-17.106c.16-2.228,1.2-22.034-11.6-31.4a21.962,21.962,0,0,0-10.929-4.09,20.261,20.261,0,0,0-3.113,0,21.967,21.967,0,0,0-10.976,4.093c-12.792,9.36-11.759,29.169-11.6,31.4a43.668,43.668,0,0,0,4.954,17.187c-4.224,3.833-7.04,9.251-8.281,16.066l-3.509,19.354a1.394,1.394,0,0,0-.02.254H160.426a1.426,1.426,0,1,0,0,2.852H182.9l-8.731,14.968a1.43,1.43,0,0,0,0,1.433,1.411,1.411,0,0,0,1.234.713h67.047a1.43,1.43,0,0,0,1.426-1.426,1.447,1.447,0,0,0-.3-.877l-8.639-14.811H266a1.426,1.426,0,1,0,0-2.852Zm-58.528-53.065c-.148-2.066-1.116-20.436,10.438-28.89a19.384,19.384,0,0,1,9.467-3.548,17.581,17.581,0,0,1,2.76,0,19.4,19.4,0,0,1,9.422,3.546c11.557,8.457,10.586,26.824,10.437,28.89a40.941,40.941,0,0,1-4.351,15.49,24.34,24.34,0,0,0-6.325-3.143,1.427,1.427,0,0,0-1.873,1.355v6.069l-7.943-3.79a1.425,1.425,0,0,0-1.228,0l-7.943,3.79v-6.1a1.427,1.427,0,0,0-1.867-1.357,24.9,24.9,0,0,0-6.6,3.263A40.775,40.775,0,0,1,207.468,621.368ZM204.1,655.336c1.632-8.965,6.238-15.231,13.372-18.243V643.4a1.426,1.426,0,0,0,2.04,1.287l9.37-4.471,9.37,4.471a1.426,1.426,0,0,0,2.04-1.287V637.13c7.072,3.025,11.639,9.277,13.258,18.2l2.938,16.157a2.784,2.784,0,0,1-.477,2.291,1.814,1.814,0,0,1-1.443.65H236.016v-5.7h8.957a2.845,2.845,0,0,0,2.8-3.332q-.325-1.939-.64-3.921c-.317-1.971-.637-3.961-.988-5.946a1.426,1.426,0,1,0-2.809.5c.348,1.97.666,3.946.981,5.9.213,1.325.424,2.641.652,3.947H234.59a1.423,1.423,0,0,0-1.373,1.063l-.3-.036a6.355,6.355,0,0,0-4.973,1.38l-4.772,4.046a2.7,2.7,0,0,0-1,2.1h-1.485l.29-1.5a3.557,3.557,0,0,0-2.04-3.929l-2.1-.948a8.25,8.25,0,0,0-4.182-.666l2.042-11.246a1.426,1.426,0,1,0-2.807-.508l-1.932,10.66-3.31-4.429a1.426,1.426,0,0,0-2.285,1.707l4,5.35h0a1.257,1.257,0,0,0-.228.15l-3.958,3.109a5.144,5.144,0,0,0-1.639,2.246h-1.9Zm4.922,20.824a1.422,1.422,0,0,0-.264,2l.385.5-.128.086a2.072,2.072,0,0,1-2.724-.5l-.849-1.148a2.055,2.055,0,0,1-.285-.556,1.987,1.987,0,0,1,.777-2.1L209.8,671.4l.221-.114.076-.041,3.358,4.495c.39.53,1,1.365,1.557,2.149a1.117,1.117,0,0,1-.185,1.5l-.007.007a1.134,1.134,0,0,1-1.619-.157l-1.013-1.319-1.112-1.44-.05-.064A1.421,1.421,0,0,0,209.025,676.159Zm6.8-2.016c-.29-.394-.486-.658-.486-.658l0,0-2.44-3.267a5.428,5.428,0,0,1,2.78.433l2.089.948a.715.715,0,0,1,.414.792l-.751,3.894Zm9.31.267,4.668-3.957a3.54,3.54,0,0,1,2.749-.723l.615.076v4.627h-7.859A.624.624,0,0,1,225.131,674.411Zm-38.926,2.875h16.21c.016.056.023.115.042.171a5.005,5.005,0,0,0,.692,1.326l.849,1.148a4.838,4.838,0,0,0,1.726,1.455,4.9,4.9,0,0,0,1.769.5v9.66H177.883Zm24.139,14.262V681.26c.071-.041.145-.072.214-.116l.335-.214.057.071a3.956,3.956,0,0,0,2.738,1.5,3.875,3.875,0,0,0,.406.021,3.235,3.235,0,0,0,.742-.078.36.36,0,0,0,.086-.014.286.286,0,0,0,.107-.021,1.45,1.45,0,0,0,.25-.078,3.64,3.64,0,0,0,1.391-.756l.007-.007c.242-.166.485-.351.725-.541l1.042,1.394c.023.031.051.052.076.08a1.279,1.279,0,0,0,.355.294c.042.024.083.049.127.069a1.51,1.51,0,0,0,.173.061c.037.011.073.026.111.034a1.508,1.508,0,0,0,.28.032l.021,0h10.725a1.426,1.426,0,1,0,0-2.852H220.3l-.82-1.1a3.24,3.24,0,0,0,.355-.507,1.208,1.208,0,0,0,.128-.371l.17-.877h11.5l8.322,14.262Z" transform="translate(-153.295 -585.297)" fill="#263357"/>
    <path id="Trazado_247" data-name="Trazado 247" d="M250.426,726a1.426,1.426,0,1,0,0,2.852h7.131a1.426,1.426,0,1,0,0-2.852Z" transform="translate(-179.115 -625.454)" fill="#263357"/>
    <path id="Trazado_248" data-name="Trazado 248" d="M240.7,726h-4.279a1.426,1.426,0,1,0,0,2.852H240.7a1.426,1.426,0,1,0,0-2.852Z" transform="translate(-175.098 -625.454)" fill="#263357"/>
    <path id="Trazado_249" data-name="Trazado 249" d="M277.613,716.635a1.426,1.426,0,0,0-2.373,1.582l8.557,12.836a1.426,1.426,0,1,0,2.373-1.582Z" transform="translate(-186.574 -622.585)" fill="#263357"/>
    <path id="Trazado_250" data-name="Trazado 250" d="M177.77,716.24a1.428,1.428,0,0,0-1.978.4l-8.557,12.836a1.426,1.426,0,1,0,2.373,1.582l8.557-12.836A1.426,1.426,0,0,0,177.77,716.24Z" transform="translate(-155.589 -622.585)" fill="#263357"/>
    <path id="Trazado_251" data-name="Trazado 251" d="M298.119,677.049a1.426,1.426,0,0,0,1.4,1.172,1.369,1.369,0,0,0,.257-.024,1.425,1.425,0,0,0,1.148-1.658,38.189,38.189,0,0,0-3.451-10.491,1.426,1.426,0,1,0-2.543,1.291A35.346,35.346,0,0,1,298.119,677.049Z" transform="translate(-192.247 -608.03)" fill="#263357"/>
    <path id="Trazado_252" data-name="Trazado 252" d="M180.426,600.852h7.844a7.854,7.854,0,0,1,7.844,7.844,1.426,1.426,0,1,0,2.852,0,10.708,10.708,0,0,0-10.7-10.7h-7.844a1.426,1.426,0,0,0,0,2.852Z" transform="translate(-159.033 -588.732)" fill="#263357"/>
    <path id="Trazado_253" data-name="Trazado 253" d="M276.451,587.582a27.3,27.3,0,0,1,7.759,8.982,1.426,1.426,0,0,0,2.5-1.376,30.123,30.123,0,0,0-8.573-9.907,1.426,1.426,0,0,0-1.684,2.3Z" transform="translate(-186.822 -585.004)" fill="#263357"/>
  </g>
</svg>
