<svg xmlns="http://www.w3.org/2000/svg" viewBox="0 0 1920 1144"><title>bg-explore</title><g id="5e53cce9-643d-47a5-b2b1-54d017767025" data-name="Layer 2"><g id="5520d5d7-2702-4ff2-b3aa-8f96637edd55" data-name="Layer 1"><g id="68c26b23-e364-41de-8888-1ed9cfccef50" data-name="Grupo 1526"><path id="87b85446-ce34-4ca2-a51d-5a35563c9292" data-name="Trazado 849" d="M0,0H1920V1144H0Z" fill="#fbad49"/><g id="751cb39f-2876-4bc8-857f-21e52b6343f1" data-name="Grupo 1486"><g id="63b6499a-1c2e-4d91-a8c5-699afc4416d8" data-name="Grupo 1487" opacity="0.3"><g id="cfb51295-cef5-47de-ae5d-c927ce2f612d" data-name="Grupo 1486-2"><path id="1b53cc57-b4cc-4ef7-844b-8e3fd952401e" data-name="Trazado 706" d="M1774.22,173.55,1718,198a110.42,110.42,0,0,0-9.76,9.1l79.43-34.57A113.33,113.33,0,0,0,1774.22,173.55Z" fill="#27293f"/><path id="d9c7ed63-d40d-4d86-8780-811a8041137a" data-name="Trazado 707" d="M1804.43,173.58l-106.85,46.5c-1.54,2.2-3,4.45-4.37,6.75l119.23-51.89Q1808.48,174.11,1804.43,173.58Z" fill="#27293f"/><path id="f1020cef-7bbf-4fbd-891f-3edfb2a16a41" data-name="Trazado 708" d="M1824.25,178.12l-136.68,59.49q-1.33,2.92-2.5,5.94l145.29-63.23Q1827.34,179.14,1824.25,178.12Z" fill="#27293f"/><path id="2237e0ef-f1d2-4e1c-a6b0-b73e2b928df6" data-name="Trazado 709" d="M1839.78,184.54l-157.94,68.73q-.75,2.7-1.38,5.45l164.31-71.5C1843.13,186.28,1841.46,185.39,1839.78,184.54Z" fill="#27293f"/><path id="5ea6c624-86e9-4a1f-b51b-2d2fc5eef464" data-name="Trazado 710" d="M1852.61,192.12l-173.79,75.64c-.23,1.69-.43,3.39-.59,5.11l178.58-77.73Q1854.76,193.6,1852.61,192.12Z" fill="#27293f"/><path id="07bf117c-0314-4ce3-ae67-fb5c3e88f9f3" data-name="Trazado 711" d="M1863.45,200.57l-185.66,80.81c0,.5,0,1,0,1.51,0,1.11,0,2.21.09,3.32L1867,203.88C1865.85,202.75,1864.67,201.65,1863.45,200.57Z" fill="#27293f"/><path id="2c9eac87-bd8b-46cb-84bd-566d346b00d8" data-name="Trazado 712" d="M1872.67,209.74l-194.32,84.57c.15,1.54.36,3.07.59,4.6l196.77-85.64C1874.72,212.07,1873.7,210.89,1872.67,209.74Z" fill="#27293f"/><path id="8126ccf6-2245-4101-9bf0-b69bf4f4ea3c" data-name="Trazado 713" d="M1880.47,219.51l-200.1,87.1c.32,1.47.66,2.94,1.05,4.39L1883,223.26C1882.19,222,1881.34,220.75,1880.47,219.51Z" fill="#27293f"/><path id="3d8d3b7d-bcd6-4ea9-9a27-70ed1a0a3cb6" data-name="Trazado 714" d="M1887,229.85l-203.33,88.49c.49,1.41,1,2.8,1.53,4.19l203.88-88.74C1888.4,232.47,1887.72,231.14,1887,229.85Z" fill="#27293f"/><path id="74d32ff1-f65a-45e1-bbd3-705497663fbf" data-name="Trazado 715" d="M1892.26,240.72,1688.2,329.54c.63,1.34,1.3,2.67,2,4l203.72-88.66C1893.39,243.47,1892.83,242.09,1892.26,240.72Z" fill="#27293f"/><path id="d82c78e6-ffd3-4b30-8a9d-778de9ce2c83" data-name="Trazado 716" d="M1896.29,252.14,1694,340.21c.79,1.28,1.62,2.54,2.45,3.78l201.07-87.51C1897.11,255,1896.71,253.58,1896.29,252.14Z" fill="#27293f"/><path id="c709c0b8-693f-4102-b7a6-cf623bd8e717" data-name="Trazado 717" d="M1899.07,264.11,1701,350.31c.94,1.21,1.91,2.41,2.91,3.58l195.83-85.23C1899.55,267.13,1899.32,265.61,1899.07,264.11Z" fill="#27293f"/><path id="6a424ae3-8345-4757-b291-38200d0ab849" data-name="Trazado 718" d="M1900.52,276.65l-191.16,83.2q1.7,1.71,3.45,3.35l187.86-81.76C1900.65,279.83,1900.6,278.23,1900.52,276.65Z" fill="#27293f"/><path id="5b02c71f-cbe7-4cd1-a4fd-601db2a96188" data-name="Trazado 719" d="M1900.46,289.84,1719.2,368.73q2,1.59,4,3.09L1900,294.88C1900.22,293.21,1900.35,291.53,1900.46,289.84Z" fill="#27293f"/><path id="fb1f35b3-09f6-42ce-a0bb-ff505a1c27a8" data-name="Trazado 720" d="M1898.68,303.79l-167.89,73.07c1.57,1,3.16,1.89,4.79,2.77l161.92-70.47C1897.93,307.38,1898.33,305.59,1898.68,303.79Z" fill="#27293f"/><path id="0fc48d07-ca73-4f3e-8cd9-372d429f927c" data-name="Trazado 721" d="M1894.67,318.71,1744.61,384c1.9.82,3.83,1.61,5.79,2.33l142.07-61.83C1893.26,322.61,1894,320.67,1894.67,318.71Z" fill="#27293f"/><path id="42791977-4868-4969-a225-e670299c2721" data-name="Trazado 722" d="M1887.5,335l-125.94,54.81c2.46.62,5,1.14,7.49,1.59l114.59-49.87C1885,339.4,1886.29,337.23,1887.5,335Z" fill="#27293f"/><path id="bea3253a-7ad2-4a17-a236-efb3e4d312f3" data-name="Trazado 723" d="M1795.52,393.06,1866.93,362a111,111,0,0,0,7.72-8.22l-90.42,39.36c1.66.07,3.32.12,5,.12C1791.34,393.24,1793.44,393.17,1795.52,393.06Z" fill="#27293f"/></g></g><g id="c902639b-bde3-4cb8-b1e3-e5b2be3f67e6" data-name="Grupo 1489" opacity="0.3"><g id="bb2b789b-8d2b-4960-b924-6ff4dcb90552" data-name="Grupo 1488"><path id="5fa13064-0fb3-47cc-bb0b-bd13d93c360a" data-name="Trazado 724" d="M139.56,270.28,83.3,294.76a113.5,113.5,0,0,0-9.76,9.1L153,269.29A115.5,115.5,0,0,0,139.56,270.28Z" fill="#27293f"/><path id="7f85603b-7a04-47d1-bdb6-8a29a374d17b" data-name="Trazado 725" d="M169.77,270.3,62.92,316.8q-2.3,3.3-4.37,6.76l119.23-51.89C175.14,271.11,172.47,270.67,169.77,270.3Z" fill="#27293f"/><path id="a0dadd5d-f62d-4060-9230-d3ac70aa2114" data-name="Trazado 726" d="M189.6,274.84,52.92,334.33c-.89,2-1.73,3.94-2.5,5.94L195.7,277Q192.69,275.86,189.6,274.84Z" fill="#27293f"/><path id="1bbc001b-4e93-4fd7-bb18-f0f7c68bf145" data-name="Trazado 727" d="M205.11,281.26,47.19,350q-.77,2.7-1.38,5.45L210.1,283.94Q207.66,282.54,205.11,281.26Z" fill="#27293f"/><path id="5dfda30c-6e9e-474a-9cb4-594276e6a61a" data-name="Trazado 728" d="M218,288.84,44.16,364.48c-.23,1.7-.43,3.4-.59,5.11l178.59-77.72Q220.09,290.31,218,288.84Z" fill="#27293f"/><path id="86b31744-cc67-41f5-a20f-dfab39e41c76" data-name="Trazado 729" d="M228.8,297.3,43.13,378.11c0,.5,0,1,0,1.5,0,1.12.06,2.22.09,3.33L232.36,300.6Q230.62,298.91,228.8,297.3Z" fill="#27293f"/><path id="bd295265-0a7e-4b40-9324-7b2b89e043e7" data-name="Trazado 730" d="M238,306.46,43.69,391c.16,1.54.36,3.07.59,4.59L241.05,310C240.06,308.79,239,307.62,238,306.46Z" fill="#27293f"/><path id="99148bd4-842e-46dc-b621-04dba458aa3c" data-name="Trazado 731" d="M245.81,316.24,45.7,403.33c.33,1.47.67,2.94,1,4.39L248.36,320Q247.12,318.09,245.81,316.24Z" fill="#27293f"/><path id="9533a59d-959e-4dc7-8081-02a95c468689" data-name="Trazado 732" d="M252.34,326.57,49,415.06c.48,1.41,1,2.81,1.52,4.19l203.88-88.73C253.74,329.19,253.06,327.87,252.34,326.57Z" fill="#27293f"/><path id="e5fe316c-afc0-4b0c-8984-cd5ba24ceb94" data-name="Trazado 733" d="M257.6,337.45,53.54,426.26c.64,1.35,1.3,2.67,2,4l203.72-88.66C258.73,340.19,258.17,338.82,257.6,337.45Z" fill="#27293f"/><path id="e46519f1-3c9d-44b1-9878-552099b8bcdc" data-name="Trazado 734" d="M261.63,348.87,59.29,436.93c.79,1.28,1.62,2.54,2.46,3.79l201.06-87.51C262.45,351.75,262.05,350.3,261.63,348.87Z" fill="#27293f"/><path id="59f55e51-d201-4aae-855e-26b346586604" data-name="Trazado 735" d="M264.4,360.83,66.35,447q1.43,1.83,2.91,3.59l195.83-85.23C264.89,363.86,264.67,362.34,264.4,360.83Z" fill="#27293f"/><path id="a6b69750-0302-4d0f-be28-d96393654d16" data-name="Trazado 736" d="M265.86,373.37,74.71,456.57q1.68,1.71,3.44,3.35L266,378.16C266,376.56,266,375,265.86,373.37Z" fill="#27293f"/><path id="32ca3c93-c36c-46d2-bc63-e1c02dceb064" data-name="Trazado 737" d="M265.8,386.57,84.54,465.46q2,1.59,4,3.09l176.79-76.94Q265.65,389.11,265.8,386.57Z" fill="#27293f"/><path id="8ed15b15-c147-4904-ad47-29a4357f4b39" data-name="Trazado 738" d="M264,400.51,96.13,473.59q2.36,1.44,4.79,2.77l161.92-70.47Q263.5,403.22,264,400.51Z" fill="#27293f"/><path id="3669e30e-ca88-4cb9-89e7-374d50c6d7bb" data-name="Trazado 739" d="M260,415.44,110,480.74q2.85,1.25,5.79,2.33l142.07-61.83Q259,418.38,260,415.44Z" fill="#27293f"/><path id="ddf59238-7834-4f24-9036-0646c3932607" data-name="Trazado 740" d="M252.85,431.72,126.9,486.54c2.46.62,5,1.13,7.49,1.59L249,438.26C250.34,436.12,251.64,434,252.85,431.72Z" fill="#27293f"/><path id="9da25284-c8a8-45e1-ac78-f1ece47426f6" data-name="Trazado 741" d="M160.87,489.78l71.41-31.08a110.86,110.86,0,0,0,7.71-8.21l-90.41,39.35c1.65.07,3.32.13,5,.13C156.68,490,158.78,489.9,160.87,489.78Z" fill="#27293f"/></g></g><g id="af4d893e-4512-42e4-a9f7-7194f192fde0" data-name="Grupo 1491" opacity="0.3"><g id="79c7acc8-8eb4-4819-ae8b-b0ccc99b554b" data-name="Grupo 1490"><path id="fb677274-ce70-4e69-91be-f3f88b535ed0" data-name="Trazado 742" d="M792.1,707.83l-56.26,24.48a113.5,113.5,0,0,0-9.76,9.1l79.43-34.57A111.26,111.26,0,0,0,792.1,707.83Z" fill="#fff"/><path id="54375103-0e15-4efb-865a-fa3722020012" data-name="Trazado 743" d="M822.31,707.85l-106.84,46.5c-1.54,2.19-3,4.45-4.38,6.75l119.23-51.89C827.68,708.66,825,708.22,822.31,707.85Z" fill="#fff"/><path id="863c16b7-b1d6-4c7b-99fb-098cfe55bd69" data-name="Trazado 744" d="M842.13,712.39,705.45,771.88c-.89,2-1.73,3.93-2.5,5.94l145.28-63.23Q845.23,713.41,842.13,712.39Z" fill="#fff"/><path id="7d287d3a-d63d-44fd-9d28-0093afeb4bef" data-name="Trazado 745" d="M857.66,718.81,699.72,787.54q-.75,2.7-1.38,5.46l164.31-71.51Q860.19,720.08,857.66,718.81Z" fill="#fff"/><path id="36217d41-3853-4783-85d9-daa53e3cea43" data-name="Trazado 746" d="M870.49,726.39,696.7,802c-.23,1.69-.43,3.39-.59,5.11L874.7,729.42Q872.63,727.86,870.49,726.39Z" fill="#fff"/><path id="9c756c19-90eb-4f31-aa74-87b075f8a62b" data-name="Trazado 747" d="M881.33,734.85l-185.66,80.8c0,.5,0,1,0,1.51,0,1.11,0,2.22.09,3.32L884.9,738.15C883.73,737,882.55,735.92,881.33,734.85Z" fill="#fff"/><path id="6868eed0-ddb5-4955-8952-f8eae7acbcd1" data-name="Trazado 748" d="M890.55,744,696.23,828.58c.16,1.55.36,3.07.59,4.6l196.77-85.64C892.6,746.34,891.58,745.17,890.55,744Z" fill="#fff"/><path id="c1a5f3fa-19e8-40f1-a5c5-4514f29649f4" data-name="Trazado 749" d="M898.35,753.79l-200.1,87.09c.32,1.47.66,2.94,1,4.39l201.6-87.74Q899.66,755.64,898.35,753.79Z" fill="#fff"/><path id="baf7032f-1b59-458b-b5ec-bead971c69ca" data-name="Trazado 750" d="M904.88,764.11l-203.34,88.5c.49,1.41,1,2.81,1.53,4.19L907,768.07C906.28,766.74,905.6,765.41,904.88,764.11Z" fill="#fff"/><path id="723eba78-d015-4069-a96c-e04297534d1f" data-name="Trazado 751" d="M910.14,775,706.08,863.81c.64,1.35,1.3,2.67,2,4l203.72-88.67C911.27,777.74,910.71,776.36,910.14,775Z" fill="#fff"/><path id="ad293060-b025-4c91-bafa-872a1fda96ed" data-name="Trazado 752" d="M914.17,786.42,711.83,874.48c.79,1.28,1.62,2.54,2.46,3.79l201.06-87.52C915,789.3,914.59,787.85,914.17,786.42Z" fill="#fff"/><path id="826730d2-3db7-4b34-b419-8ae17118d717" data-name="Trazado 753" d="M917,798.38l-198.06,86.2c.94,1.21,1.91,2.41,2.91,3.58l195.83-85.23C917.43,801.41,917.2,799.89,917,798.38Z" fill="#fff"/><path id="da451f51-3df5-44eb-96c3-293ef14a4d1d" data-name="Trazado 754" d="M918.4,810.92l-191.15,83.2q1.68,1.71,3.44,3.35l187.86-81.76C918.53,814.1,918.49,812.51,918.4,810.92Z" fill="#fff"/><path id="9c113e59-fec8-4be4-bfe4-bfc003eb7d77" data-name="Trazado 755" d="M918.34,824.12,737.09,903q2,1.61,4,3.1l176.79-77C918.1,827.49,918.23,825.81,918.34,824.12Z" fill="#fff"/><path id="9a278c32-9a53-4dfd-aaaf-809fbea532d7" data-name="Trazado 756" d="M916.56,838.06,748.67,911.13q2.36,1.46,4.79,2.77l161.92-70.47Q916,840.78,916.56,838.06Z" fill="#fff"/><path id="8f90e69d-47ff-4adb-90fd-769c07cc06e7" data-name="Trazado 757" d="M912.55,853,762.49,918.29q2.85,1.25,5.79,2.33l142.07-61.83C911.14,856.88,911.86,854.94,912.55,853Z" fill="#fff"/><path id="21b65d3b-e773-4e18-b779-d68ef3d9963d" data-name="Trazado 758" d="M905.38,869.27,779.44,924.08c2.46.63,5,1.14,7.49,1.6l114.59-49.87C902.88,873.67,904.17,871.5,905.38,869.27Z" fill="#fff"/><path id="0590f623-7613-4742-b62f-abd58a8c07ba" data-name="Trazado 759" d="M813.4,927.33l71.41-31.08q4.07-3.91,7.72-8.21l-90.42,39.35c1.66.07,3.32.12,5,.12C809.22,927.52,811.32,927.44,813.4,927.33Z" fill="#fff"/></g></g><g id="6c20235f-848e-4f28-83a6-a694f1a9af17" data-name="Grupo 1495"><g id="37bc6f7a-cf04-4300-a67f-bd5d23d6fc50" data-name="Grupo 1492"><path id="22ffcd19-bf4e-44e4-b8a1-4cd7e0b4a843" data-name="Trazado 760" d="M1812.64,899.36a4.31,4.31,0,1,1-4.55-4.05h.25A4.19,4.19,0,0,1,1812.64,899.36Z" fill="#fff"/><path id="e58e19fd-f247-4fdd-b256-6252da4f0d61" data-name="Trazado 761" d="M1812.68,921.19a4.31,4.31,0,1,1-4.55-4.05h.25A4.18,4.18,0,0,1,1812.68,921.19Z" fill="#fff"/><path id="a9ebb5eb-dec5-4609-abd7-b5c69c10e0bb" data-name="Trazado 762" d="M1812.68,943a4.31,4.31,0,1,1-4.55-4h.25A4.19,4.19,0,0,1,1812.68,943Z" fill="#fff"/><path id="109c5c93-5a44-41cf-9375-e5d6fc43671f" data-name="Trazado 763" d="M1812.68,964.84a4.31,4.31,0,1,1-4.55-4.05h.25A4.19,4.19,0,0,1,1812.68,964.84Z" fill="#fff"/><path id="7fc618d6-63a6-4e1f-b70f-3d70b4c61707" data-name="Trazado 764" d="M1812.68,986.67a4.31,4.31,0,1,1-4.55-4h.25A4.19,4.19,0,0,1,1812.68,986.67Z" fill="#fff"/><path id="e51d5fe9-7687-484b-b7de-37799a5c7ba1" data-name="Trazado 765" d="M1812.68,1008.5a4.31,4.31,0,1,1-4.55-4h.25A4.18,4.18,0,0,1,1812.68,1008.5Z" fill="#fff"/></g><g id="4203b300-25b5-42d5-8cbe-ae51b07771c0" data-name="Grupo 1493"><path id="ba78d32b-4b93-43a5-b643-eb606e2a24a6" data-name="Trazado 766" d="M1854.81,899.36a4.31,4.31,0,1,1-4.55-4.05h.25A4.19,4.19,0,0,1,1854.81,899.36Z" fill="#fff"/><path id="21ff4da1-1fe6-4948-8389-57949295cf96" data-name="Trazado 767" d="M1854.85,921.19a4.31,4.31,0,1,1-4.55-4.05h.25A4.18,4.18,0,0,1,1854.85,921.19Z" fill="#fff"/><path id="92fc21f6-d7dd-4669-ad83-d508c4fbacfa" data-name="Trazado 768" d="M1854.85,943a4.31,4.31,0,1,1-4.55-4h.25A4.19,4.19,0,0,1,1854.85,943Z" fill="#fff"/><path id="05efc3f1-d9e6-4a81-9350-7a8039d3271c" data-name="Trazado 769" d="M1854.85,964.84a4.31,4.31,0,1,1-4.55-4.05h.25A4.19,4.19,0,0,1,1854.85,964.84Z" fill="#fff"/><path id="871a8aaf-7e8d-4279-b996-06064c4a7110" data-name="Trazado 770" d="M1854.85,986.67a4.31,4.31,0,1,1-4.55-4h.25A4.19,4.19,0,0,1,1854.85,986.67Z" fill="#fff"/><path id="5a136078-35e8-47fa-bacd-77a4afe536d5" data-name="Trazado 771" d="M1854.85,1008.5a4.31,4.31,0,1,1-4.55-4h.25A4.18,4.18,0,0,1,1854.85,1008.5Z" fill="#fff"/></g><g id="aba1d0b1-3414-491d-a17d-e7280b8a1de9" data-name="Grupo 1494"><path id="f0abab1f-39ef-47be-8126-ea89e373661f" data-name="Trazado 772" d="M1832.53,887a4.31,4.31,0,1,1-4.55-4h.25A4.19,4.19,0,0,1,1832.53,887Z" fill="#fff"/><path id="a4af5289-3f00-4206-905b-d2816943ed95" data-name="Trazado 773" d="M1832.57,908.84a4.31,4.31,0,1,1-4.55-4.05h.25A4.19,4.19,0,0,1,1832.57,908.84Z" fill="#fff"/><path id="83540ea9-6ff1-41c1-ba5e-4eed02aa7207" data-name="Trazado 774" d="M1832.57,930.66a4.31,4.31,0,1,1-4.55-4h.25A4.18,4.18,0,0,1,1832.57,930.66Z" fill="#fff"/><path id="cc97fadd-f065-4b03-bd29-e3b92138f45b" data-name="Trazado 775" d="M1832.57,952.49a4.31,4.31,0,1,1-4.55-4h.25A4.19,4.19,0,0,1,1832.57,952.49Z" fill="#fff"/><path id="16100a28-5526-410b-b2fe-c2a8c67f6a30" data-name="Trazado 776" d="M1832.57,974.32a4.31,4.31,0,1,1-4.55-4.05h.25A4.19,4.19,0,0,1,1832.57,974.32Z" fill="#fff"/><path id="d87d95a4-9953-43b6-be9b-0daacabf946e" data-name="Trazado 777" d="M1832.57,996.15a4.31,4.31,0,1,1-4.55-4h.25A4.19,4.19,0,0,1,1832.57,996.15Z" fill="#fff"/></g></g><g id="49260593-6de1-4712-bbc7-ea4d20066d12" data-name="Grupo 1499"><g id="7f15a220-b5ba-4f54-9b07-b757e6e8b515" data-name="Grupo 1496"><path id="92156b05-2c4f-49f6-af7b-def0a5cbc770" data-name="Trazado 778" d="M341.45,69.41a4.31,4.31,0,1,1-4.55-4h.25A4.18,4.18,0,0,1,341.45,69.41Z" fill="#27293f"/><ellipse id="4729cb07-68a0-467d-90b3-b7e797d92680" data-name="Elipse 34" cx="337.19" cy="91.23" rx="4.3" ry="4.06" fill="#27293f"/><path id="10390cdf-f293-4d4a-a8be-0384b974df8d" data-name="Trazado 779" d="M341.49,113.06a4.31,4.31,0,1,1-4.55-4h.25A4.18,4.18,0,0,1,341.49,113.06Z" fill="#27293f"/><path id="135e3137-9c90-4439-b9c9-8fa62d35a1a0" data-name="Trazado 780" d="M341.49,134.89a4.31,4.31,0,1,1-4.55-4h.25A4.19,4.19,0,0,1,341.49,134.89Z" fill="#27293f"/><path id="c0645773-4eb6-459b-8aaf-06a0d99d625c" data-name="Trazado 781" d="M341.49,156.72a4.31,4.31,0,1,1-4.55-4.05h.25A4.18,4.18,0,0,1,341.49,156.72Z" fill="#27293f"/><path id="10dc0885-3bd6-4679-8229-0f1314204006" data-name="Trazado 782" d="M341.49,178.54a4.31,4.31,0,1,1-4.55-4h.25A4.18,4.18,0,0,1,341.49,178.54Z" fill="#27293f"/></g><g id="39540856-ae75-486f-877c-b02cb69669ec" data-name="Grupo 1497"><path id="f96c5ec0-72c5-4917-b1e9-f841042cc295" data-name="Trazado 783" d="M383.62,69.41a4.31,4.31,0,1,1-4.55-4h.25A4.18,4.18,0,0,1,383.62,69.41Z" fill="#27293f"/><path id="86cd90d3-0b28-4952-9adf-61c19146fa0a" data-name="Trazado 784" d="M383.66,91.23a4.31,4.31,0,1,1-4.55-4h.25A4.18,4.18,0,0,1,383.66,91.23Z" fill="#27293f"/><path id="9bfe8ab6-4582-4c42-bd1d-f98ac9be82ed" data-name="Trazado 785" d="M383.66,113.06a4.31,4.31,0,1,1-4.55-4h.25A4.18,4.18,0,0,1,383.66,113.06Z" fill="#27293f"/><path id="75e937db-b1c8-4e09-b157-d862f820b3ab" data-name="Trazado 786" d="M383.66,134.89a4.31,4.31,0,1,1-4.55-4h.25A4.19,4.19,0,0,1,383.66,134.89Z" fill="#27293f"/><path id="8019c154-ce90-4d7f-b59c-3b9d9b8dcabc" data-name="Trazado 787" d="M383.66,156.72a4.31,4.31,0,1,1-4.55-4.05h.25A4.18,4.18,0,0,1,383.66,156.72Z" fill="#27293f"/><path id="1d102759-5f93-4209-93e9-ea4092d6ae7b" data-name="Trazado 788" d="M383.66,178.54a4.31,4.31,0,1,1-4.55-4h.25A4.18,4.18,0,0,1,383.66,178.54Z" fill="#27293f"/></g><g id="1e123511-e5cb-4cd4-bebc-68e1e2d92387" data-name="Grupo 1498"><path id="f7a366f4-b3d0-45a7-aa2e-a17b4db730ed" data-name="Trazado 789" d="M361.34,57.06A4.31,4.31,0,1,1,356.79,53H357A4.19,4.19,0,0,1,361.34,57.06Z" fill="#27293f"/><path id="9ff6ab1d-0cbe-4b3a-96e9-67554ad43b84" data-name="Trazado 790" d="M361.38,78.89a4.31,4.31,0,1,1-4.55-4h.25A4.18,4.18,0,0,1,361.38,78.89Z" fill="#27293f"/><path id="649367eb-0c5b-48c0-bfd4-20e314b2f915" data-name="Trazado 791" d="M361.38,100.71a4.31,4.31,0,1,1-4.55-4h.25A4.19,4.19,0,0,1,361.38,100.71Z" fill="#27293f"/><path id="25905dc4-9296-4349-85ef-f4b2d0c10524" data-name="Trazado 792" d="M361.38,122.54a4.31,4.31,0,1,1-4.55-4.05h.25A4.19,4.19,0,0,1,361.38,122.54Z" fill="#27293f"/><path id="887d6449-cc4d-4038-94da-fca64a7cbfb6" data-name="Trazado 793" d="M361.38,144.37a4.31,4.31,0,1,1-4.55-4.05h.25A4.18,4.18,0,0,1,361.38,144.37Z" fill="#27293f"/><path id="b62f3c10-f034-4780-96d0-2eb0719ce74b" data-name="Trazado 794" d="M361.38,166.2a4.31,4.31,0,1,1-4.55-4h.25A4.19,4.19,0,0,1,361.38,166.2Z" fill="#27293f"/></g></g><g id="1e2fefa4-fc72-4dae-8313-8f7d99d658b2" data-name="Grupo 1504"><g id="d631aa0b-b12f-4a50-b3de-3c47a9969f3c" data-name="Grupo 1503"><g id="77f9a858-c3ce-434c-aa7e-93166093a83e" data-name="Grupo 1500"><path id="3d5f47c1-aabc-4d5e-9170-2dcf61668210" data-name="Trazado 795" d="M1431.26,355.2a4.44,4.44,0,1,1-4.27,4.6v-.16A4.34,4.34,0,0,1,1431.26,355.2Z" fill="#fff"/><path id="a3627e9f-a592-4c6f-85fe-eff56dab996a" data-name="Trazado 796" d="M1454.26,355.15a4.44,4.44,0,1,1-4.27,4.61v-.17A4.36,4.36,0,0,1,1454.26,355.15Z" fill="#fff"/><path id="37c03d65-76bd-4090-848b-4589c8c1810f" data-name="Trazado 797" d="M1477.25,355.15a4.44,4.44,0,1,1-4.27,4.61v-.17A4.36,4.36,0,0,1,1477.25,355.15Z" fill="#fff"/><path id="bdd9a3b1-862a-4d9e-949b-ec5c938ebed7" data-name="Trazado 798" d="M1500.25,355.15a4.44,4.44,0,1,1-4.27,4.61c0-.05,0-.11,0-.17A4.37,4.37,0,0,1,1500.25,355.15Z" fill="#fff"/><path id="7176d72f-88bb-4c02-a0ab-3c40b75840a6" data-name="Trazado 799" d="M1523.24,355.15a4.44,4.44,0,1,1-4.27,4.61v-.17A4.36,4.36,0,0,1,1523.24,355.15Z" fill="#fff"/><path id="2b385463-1cb1-4b14-8bcb-f9c7dd6ee427" data-name="Trazado 800" d="M1546.24,355.15a4.44,4.44,0,1,1-4.27,4.61v-.17A4.36,4.36,0,0,1,1546.24,355.15Z" fill="#fff"/></g><g id="6e719316-0691-45bd-ad04-918747cf0638" data-name="Grupo 1501"><path id="b6436c16-bdc6-48a0-934e-e8a53523e46f" data-name="Trazado 801" d="M1431.26,311.66a4.44,4.44,0,1,1-4.27,4.6v-.16A4.34,4.34,0,0,1,1431.26,311.66Z" fill="#fff"/><path id="9b215ed0-2537-4cc2-a5a1-d6f187fdd8a3" data-name="Trazado 802" d="M1454.26,311.61a4.44,4.44,0,1,1-4.27,4.61v-.17A4.36,4.36,0,0,1,1454.26,311.61Z" fill="#fff"/><path id="9906253f-8b78-4de4-8955-c79ebf916cef" data-name="Trazado 803" d="M1477.25,311.61a4.44,4.44,0,1,1-4.27,4.61v-.17A4.36,4.36,0,0,1,1477.25,311.61Z" fill="#fff"/><path id="502b7a5d-084e-4035-8173-3ba46ac07d6d" data-name="Trazado 804" d="M1500.25,311.61a4.44,4.44,0,1,1-4.27,4.61c0-.06,0-.11,0-.17A4.37,4.37,0,0,1,1500.25,311.61Z" fill="#fff"/><path id="755f197b-97a7-4abc-82a5-fcd2d8a08314" data-name="Trazado 805" d="M1523.24,311.61a4.44,4.44,0,1,1-4.27,4.61v-.17A4.36,4.36,0,0,1,1523.24,311.61Z" fill="#fff"/><path id="a7294d32-1580-4a2b-b132-dcaf673f948d" data-name="Trazado 806" d="M1546.24,311.61a4.44,4.44,0,1,1-4.27,4.61v-.17A4.36,4.36,0,0,1,1546.24,311.61Z" fill="#fff"/></g><g id="13f1c209-a1f9-4a74-82d7-0ee1fa0eee69" data-name="Grupo 1502"><path id="5e87c3d1-d0e6-4192-8d95-fbe834e69225" data-name="Trazado 807" d="M1418.25,334.66a4.44,4.44,0,1,1-4.27,4.61c0-.06,0-.11,0-.17a4.36,4.36,0,0,1,4.28-4.44Z" fill="#fff"/><path id="e050b47b-2385-4a53-ac44-1437f3fa131f" data-name="Trazado 808" d="M1441.25,334.62a4.44,4.44,0,1,1-4.28,4.6v-.16a4.35,4.35,0,0,1,4.28-4.44Z" fill="#fff"/><path id="82f08635-4c53-40a8-aa6b-2f7de0681594" data-name="Trazado 809" d="M1464.24,334.62a4.44,4.44,0,1,1-4.27,4.6v-.16a4.35,4.35,0,0,1,4.27-4.44Z" fill="#fff"/><path id="4780944c-91ef-4b4a-ba61-987639b5b8ad" data-name="Trazado 810" d="M1487.24,334.62a4.44,4.44,0,1,1-4.27,4.61,1,1,0,0,1,0-.17A4.36,4.36,0,0,1,1487.24,334.62Z" fill="#fff"/><path id="956670be-b515-4ee6-a649-a94c8d7d55b7" data-name="Trazado 811" d="M1510.23,334.62a4.44,4.44,0,1,1-4.27,4.61v-.17A4.36,4.36,0,0,1,1510.23,334.62Z" fill="#fff"/><path id="533adc99-3afd-4700-87ea-cfb0ffd6182e" data-name="Trazado 812" d="M1533.23,334.62a4.44,4.44,0,1,1-4.27,4.61c0-.06,0-.12,0-.17A4.36,4.36,0,0,1,1533.23,334.62Z" fill="#fff"/></g></g></g><g id="4bffa346-4c30-40c5-923c-250bf1852132" data-name="Grupo 1509"><g id="bf415f5f-fd59-4ac0-9f8f-7f36bf5adcfe" data-name="Grupo 1508"><g id="55807b34-1005-47f5-b67e-9b8b9e197324" data-name="Grupo 1505"><path id="aa23260f-85ae-46fc-a30a-30f75fbbd8ed" data-name="Trazado 813" d="M544.74,956.63A4.44,4.44,0,1,1,549,952v.17A4.36,4.36,0,0,1,544.74,956.63Z" fill="#fff"/><path id="d0e53fdf-e8a4-461d-bae8-0c4ab6ce6d10" data-name="Trazado 814" d="M521.74,956.67a4.44,4.44,0,1,1,4.27-4.6v.16A4.34,4.34,0,0,1,521.74,956.67Z" fill="#fff"/><path id="ceba053e-95cf-4246-a94e-22a46c9dde9b" data-name="Trazado 815" d="M498.74,956.67a4.44,4.44,0,1,1,4.27-4.6.86.86,0,0,1,0,.16A4.36,4.36,0,0,1,498.74,956.67Z" fill="#fff"/><path id="79c82b37-0da4-4e14-aca0-e3a35d08bc97" data-name="Trazado 816" d="M475.75,956.67a4.44,4.44,0,1,1,4.27-4.6v.16A4.35,4.35,0,0,1,475.75,956.67Z" fill="#fff"/><ellipse id="073e2bc5-6462-4656-818d-2cd744fe3a43" data-name="Elipse 35" cx="452.75" cy="952.24" rx="4.27" ry="4.44" fill="#fff"/><path id="3fa5f588-6d51-4ece-bd04-bca8ae1d9f95" data-name="Trazado 817" d="M429.76,956.67a4.44,4.44,0,1,1,4.27-4.6v.16a4.35,4.35,0,0,1-4.27,4.44Z" fill="#fff"/></g><g id="2c3d2b4c-ddbf-4ffb-ad94-17ba36ec8c1f" data-name="Grupo 1506"><path id="98abaa4e-75ed-4d9d-b33f-3e3376b22160" data-name="Trazado 818" d="M544.74,1000.17a4.44,4.44,0,1,1,4.27-4.61v.17A4.36,4.36,0,0,1,544.74,1000.17Z" fill="#fff"/><path id="87594c98-6a51-48be-8212-6939e970aa82" data-name="Trazado 819" d="M521.74,1000.21a4.44,4.44,0,1,1,4.27-4.6v.17A4.34,4.34,0,0,1,521.74,1000.21Z" fill="#fff"/><path id="d07cc73e-46b2-4a3a-b186-7082ed946b4c" data-name="Trazado 820" d="M498.74,1000.21a4.44,4.44,0,1,1,4.27-4.6.91.91,0,0,1,0,.17A4.36,4.36,0,0,1,498.74,1000.21Z" fill="#fff"/><path id="5eefce5f-b712-4ada-b5e3-b97368f74282" data-name="Trazado 821" d="M475.75,1000.21a4.44,4.44,0,1,1,4.27-4.6v.17A4.35,4.35,0,0,1,475.75,1000.21Z" fill="#fff"/><path id="4abc9df7-99d9-45b3-a4da-0a8271688ce9" data-name="Trazado 822" d="M452.75,1000.21a4.44,4.44,0,1,1,4.27-4.6v.17A4.35,4.35,0,0,1,452.75,1000.21Z" fill="#fff"/><path id="eaf2f8ad-47cd-4d34-9844-b59e1c6a9a7a" data-name="Trazado 823" d="M429.76,1000.21a4.44,4.44,0,1,1,4.27-4.6v.17a4.35,4.35,0,0,1-4.27,4.43Z" fill="#fff"/></g><g id="e4825fb0-0dce-44e9-92c5-93bd48ce56be" data-name="Grupo 1507"><path id="b37a1fae-dc2f-40ec-9b5c-5a6890d77ea6" data-name="Trazado 824" d="M557.74,977.17a4.44,4.44,0,1,1,4.27-4.61,1,1,0,0,1,0,.17,4.36,4.36,0,0,1-4.28,4.44Z" fill="#fff"/><path id="2e52a7fe-e797-4d8d-afad-5f067eecf2fd" data-name="Trazado 825" d="M534.75,977.21a4.44,4.44,0,1,1,4.27-4.6s0,.11,0,.16a4.36,4.36,0,0,1-4.28,4.44Z" fill="#fff"/><path id="3b976657-6d90-4703-b058-22ce62ef2d36" data-name="Trazado 826" d="M511.76,977.21A4.44,4.44,0,1,1,516,972.6a1,1,0,0,1,0,.17A4.36,4.36,0,0,1,511.76,977.21Z" fill="#fff"/><path id="e50b4c4c-7591-495c-9381-55606536406e" data-name="Trazado 827" d="M488.76,977.21A4.44,4.44,0,1,1,493,972.6v.17A4.36,4.36,0,0,1,488.76,977.21Z" fill="#fff"/><path id="d96f17b9-a27c-47bf-adc0-95e9d4b89e4d" data-name="Trazado 828" d="M465.76,977.21A4.44,4.44,0,1,1,470,972.6a1,1,0,0,1,0,.17A4.36,4.36,0,0,1,465.76,977.21Z" fill="#fff"/><path id="f3b471fe-e65b-4da7-ab32-bcf537665573" data-name="Trazado 829" d="M442.77,977.21A4.44,4.44,0,1,1,447,972.6v.17A4.36,4.36,0,0,1,442.77,977.21Z" fill="#fff"/></g></g></g><g id="8e62f974-a2dc-4b73-b575-6618ecd305f1" data-name="Grupo 1511" opacity="0.3"><g id="c6ae3db5-7be1-4892-a0f0-fe0a4da8cd97" data-name="Grupo 1510"><path id="5bc33187-b92d-4386-aed4-11d14640864f" data-name="Trazado 830" d="M1650.41,949.38l-40,17.6a80.94,80.94,0,0,0-6.94,6.54L1660,948.68A80.09,80.09,0,0,0,1650.41,949.38Z" fill="#fff"/><path id="74ba15e8-5d7e-47d4-960f-3b1047e6edaf" data-name="Trazado 831" d="M1671.9,949.4l-76,33.42c-1.09,1.58-2.13,3.19-3.11,4.85l84.83-37.3Q1674.79,949.79,1671.9,949.4Z" fill="#fff"/><path id="3ddfafdc-e586-4290-a2ee-8f58f799c7be" data-name="Trazado 832" d="M1686,952.66l-97.24,42.76q-1,2.1-1.78,4.27l103.36-45.45C1688.92,953.68,1687.48,953.15,1686,952.66Z" fill="#fff"/><path id="690b6533-bf2a-49d1-bbfa-cacbad13947a" data-name="Trazado 833" d="M1697.05,957.28l-112.36,49.4c-.36,1.29-.68,2.59-1,3.91l116.9-51.39C1699.44,958.53,1698.26,957.89,1697.05,957.28Z" fill="#fff"/><path id="da5c206f-9898-48f0-bce0-bfd43db1eccc" data-name="Trazado 834" d="M1706.19,962.73l-123.65,54.36c-.17,1.21-.31,2.44-.42,3.67l127.06-55.86C1708.2,964.15,1707.2,963.43,1706.19,962.73Z" fill="#fff"/><path id="d85d7f0e-65a6-4c83-bc89-a6d0089decbf" data-name="Trazado 835" d="M1713.9,968.8l-132.09,58.08c0,.36,0,.72,0,1.08,0,.8,0,1.59.06,2.39l134.59-59.18C1715.61,970.37,1714.76,969.58,1713.9,968.8Z" fill="#fff"/><path id="7ddc449d-c6c5-4784-852f-b12b10e6196d" data-name="Trazado 836" d="M1720.45,975.39l-138.25,60.78q.18,1.66.42,3.3l140-61.55C1721.92,977.06,1721.19,976.22,1720.45,975.39Z" fill="#fff"/><path id="75ac1a24-048c-425a-b315-9504132e475f" data-name="Trazado 837" d="M1726,982.41,1583.63,1045c.24,1,.48,2.11.75,3.15l143.43-63.05C1727.23,984.2,1726.62,983.3,1726,982.41Z" fill="#fff"/><path id="872cd778-df86-477f-9fe5-a84fd0cdaecd" data-name="Trazado 838" d="M1730.65,989.84,1586,1053.44c.35,1,.71,2,1.09,3l145-63.77C1731.65,991.72,1731.16,990.77,1730.65,989.84Z" fill="#fff"/><path id="16944bbe-fecd-41cc-b2c9-cff08cd38a6f" data-name="Trazado 839" d="M1734.39,997.66l-145.18,63.83c.45,1,.93,1.91,1.42,2.86l144.94-63.72C1735.2,999.63,1734.8,998.64,1734.39,997.66Z" fill="#fff"/><path id="8379c137-f098-4edc-a23e-c5d2ff98cb9f" data-name="Trazado 840" d="M1737.26,1005.87l-144,63.28c.56.92,1.14,1.83,1.74,2.72l143-62.89C1737.84,1007.93,1737.56,1006.9,1737.26,1005.87Z" fill="#fff"/><path id="916a1dad-1e22-4a06-b1aa-4715dafb05e7" data-name="Trazado 841" d="M1739.24,1014.46l-140.92,62c.68.88,1.36,1.74,2.07,2.58l139.33-61.26Q1739.51,1016.1,1739.24,1014.46Z" fill="#fff"/><path id="5c0b5ae7-a922-4659-908e-d267a031b42d" data-name="Trazado 842" d="M1740.27,1023.48l-136,59.78c.8.83,1.62,1.63,2.45,2.41l133.65-58.76C1740.36,1025.76,1740.33,1024.62,1740.27,1023.48Z" fill="#fff"/><path id="390502bf-d460-47ba-ab5b-6843723faf82" data-name="Trazado 843" d="M1740.23,1033l-129,56.69c.94.77,1.9,1.51,2.88,2.23l125.78-55.3C1740.06,1035.38,1740.15,1034.17,1740.23,1033Z" fill="#fff"/><path id="d6d5922e-11df-49af-9c91-97f7e228f4da" data-name="Trazado 844" d="M1739,1043l-119.45,52.52c1.12.69,2.26,1.35,3.41,2l115.2-50.65C1738.43,1045.56,1738.71,1044.28,1739,1043Z" fill="#fff"/><path id="caa213be-0bf1-4c7f-bf9b-dcd579cf726f" data-name="Trazado 845" d="M1736.1,1053.71l-106.76,46.93c1.36.59,2.73,1.16,4.12,1.68l101.08-44.44C1735.1,1056.51,1735.62,1055.11,1736.1,1053.71Z" fill="#fff"/><path id="c358e720-a454-44d1-b486-f88dc36d29af" data-name="Trazado 846" d="M1731,1065.41l-89.6,39.4c1.75.44,3.53.81,5.33,1.14l81.53-35.84C1729.23,1068.57,1730.15,1067,1731,1065.41Z" fill="#fff"/><path id="7a59c2e0-1e0d-4dbc-bf9b-6500fa9fec22" data-name="Trazado 847" d="M1665.57,1107.14l50.8-22.34a78.54,78.54,0,0,0,5.49-5.9l-64.33,28.28c1.18,0,2.36.09,3.56.09C1662.59,1107.27,1664.09,1107.22,1665.57,1107.14Z" fill="#fff"/></g></g></g></g></g></g></svg>