<svg xmlns="http://www.w3.org/2000/svg" width="145" height="145.572" viewBox="0 0 145 145.572">
  <g id="Grupo_1538" data-name="Grupo 1538" transform="translate(-201 -6494.428)">
    <g id="Grupo_1485" data-name="Grupo 1485" transform="translate(51 6500)">
      <text id="StudyRooms" transform="translate(150 135)" fill="#fbad49" font-size="21" font-family="SegoeUI-Bold, Segoe UI" font-weight="700"><tspan x="0" y="0">STUDYROOMS</tspan></text>
      <g id="Grupo_1483" data-name="Grupo 1483" transform="translate(157.676 -5.572)">
        <path id="Trazado_704" data-name="Trazado 704" d="M-334.24-435.135c1.732,1.958,1.644,4.467,1.683,6.791.263,15.341-7.488,25.793-20.625,32.574A39.352,39.352,0,0,1-382-392.336c-20.226-5.337-30.906-26.723-23.986-47.875,5.489-16.778,21.144-29.166,38.727-30.02,10.811-.526,19.946,3.41,26.288,12.535,6.089,8.758,4.2,18.161-4.786,23.9-12.657,8.083-25.2,16.358-38.7,23.037-3.507,1.734-3.465,2.741-.148,4.785,6.557,4.04,13.615,4.983,21.132,3.5,15.186-3,28.234-16.7,28.21-31.014A1.53,1.53,0,0,1-334.24-435.135Zm-61.4,8.905c.237,1.473.652,3.873,1,6.282.371,2.558,1.392,2.668,3.512,1.4,10.789-6.45,21.677-12.734,32.5-19.128A10.956,10.956,0,0,0-353.3-450.2c-1.08-4.354-5.175-7.321-10.566-7.32-10.924,0-19.273,5.059-25.8,13.523C-393.477-439.047-395.341-433.409-395.642-426.23Z" transform="translate(432.204 499.305)" fill="#fbad49"/>
        <path id="Trazado_705" data-name="Trazado 705" d="M-439.314-469.052c7.234-8.561,13.846-16.388,20.461-24.213.663-.785,1.418-1.506,2-2.347,3.969-5.742,8.74-8.344,16.376-8.684,9.488-.422,19.1-1.739,28.62-2.977,1.775-.231,3.566-.341,6.3-.595-3.409,4.065-6.053,7.8-9.292,10.916-3.063,2.946-3.069,5.412-1.007,8.924,3.009,5.125,2.778,5.345-2.79,6.29-12.461,2.115-26.453,9.755-34.634,22.446-1.77-3.313-3.572-6.335-5.032-9.514-1.511-3.292-4.231-1.992-6.332-1.621-2.365.417-.793,2.439-.64,3.761.626,5.394,1.317,10.787,3.375,15.869.521,1.288.187,1.744-1.08,2.173-4.691,1.589-5.725.853-5.383-3.913.116-1.624.528-3.3-.6-4.832a2.067,2.067,0,0,1-.063-2.554c2.318-2.512,1.077-5.288.89-8.036-.122-1.775-.951-2.122-2.482-1.944C-433.172-469.607-435.725-469.4-439.314-469.052Z" transform="translate(439.314 507.867)" fill="#fbad49"/>
      </g>
    </g>
  </g>
</svg>
